<?xml version="1.0" encoding="utf-8" standalone="no"?>
<!DOCTYPE svg PUBLIC "-//W3C//DTD SVG 1.1//EN"
  "http://www.w3.org/Graphics/SVG/1.1/DTD/svg11.dtd">
<svg xmlns:xlink="http://www.w3.org/1999/xlink" width="936pt" height="273.6pt" viewBox="0 0 936 273.6" xmlns="http://www.w3.org/2000/svg" version="1.1">
 <metadata>
  <rdf:RDF xmlns:dc="http://purl.org/dc/elements/1.1/" xmlns:cc="http://creativecommons.org/ns#" xmlns:rdf="http://www.w3.org/1999/02/22-rdf-syntax-ns#">
   <cc:Work>
    <dc:type rdf:resource="http://purl.org/dc/dcmitype/StillImage"/>
    <dc:date>2026-09-22T13:50:32.097499</dc:date>
    <dc:format>image/svg+xml</dc:format>
    <dc:creator>
     <cc:Agent>
      <dc:title>Matplotlib v3.11.1, https://matplotlib.org/</dc:title>
     </cc:Agent>
    </dc:creator>
   </cc:Work>
  </rdf:RDF>
 </metadata>
 <defs>
  <style type="text/css">*{stroke-linejoin: round; stroke-linecap: butt}</style>
 </defs>
 <g id="figure_1">
  <g id="patch_1">
   <path d="M 0 273.6
L 936 273.6
L 936 0
L 0 0
z
" style="fill: #ffffff"/>
  </g>
  <g id="axes_1">
   <g id="patch_2">
    <path d="M 47.242344 231.477656
L 305.857861 231.477656
L 305.857861 26.16
L 47.242344 26.16
z
" style="fill: #ffffff"/>
   </g>
   <g id="matplotlib.axis_1">
    <g id="xtick_1">
     <g id="line2d_1">
      <defs>
       <path id="m14655ba4b6" d="M 0 0
L 0 3.5
" style="stroke: #000000; stroke-width: 0.8"/>
      </defs>
      <g>
       <use xlink:href="#m14655ba4b6" x="58.997595" y="231.477656" style="stroke: #000000; stroke-width: 0.8"/>
      </g>
     </g>
     <g id="text_1">
      <!-- 0.00 -->
      <g transform="translate(47.864782 246.075312) scale(0.1 -0.1)">
       <defs>
        <path id="DejaVuSans-13" d="M 2034 4250
Q 1547 4250 1301 3770
Q 1056 3291 1056 2328
Q 1056 1369 1301 889
Q 1547 409 2034 409
Q 2525 409 2770 889
Q 3016 1369 3016 2328
Q 3016 3291 2770 3770
Q 2525 4250 2034 4250
z
M 2034 4750
Q 2819 4750 3233 4129
Q 3647 3509 3647 2328
Q 3647 1150 3233 529
Q 2819 -91 2034 -91
Q 1250 -91 836 529
Q 422 1150 422 2328
Q 422 3509 836 4129
Q 1250 4750 2034 4750
z
" transform="scale(0.015625)"/>
        <path id="DejaVuSans-11" d="M 684 794
L 1344 794
L 1344 0
L 684 0
L 684 794
z
" transform="scale(0.015625)"/>
       </defs>
       <use xlink:href="#DejaVuSans-13"/>
       <use xlink:href="#DejaVuSans-11" transform="translate(63.625 0)"/>
       <use xlink:href="#DejaVuSans-13" transform="translate(95.40625 0)"/>
       <use xlink:href="#DejaVuSans-13" transform="translate(159.03125 0)"/>
      </g>
     </g>
    </g>
    <g id="xtick_2">
     <g id="line2d_2">
      <g>
       <use xlink:href="#m14655ba4b6" x="98.181764" y="231.477656" style="stroke: #000000; stroke-width: 0.8"/>
      </g>
     </g>
     <g id="text_2">
      <!-- 0.01 -->
      <g transform="translate(87.048951 246.075312) scale(0.1 -0.1)">
       <defs>
        <path id="DejaVuSans-14" d="M 794 531
L 1825 531
L 1825 4091
L 703 3866
L 703 4441
L 1819 4666
L 2450 4666
L 2450 531
L 3481 531
L 3481 0
L 794 0
L 794 531
z
" transform="scale(0.015625)"/>
       </defs>
       <use xlink:href="#DejaVuSans-13"/>
       <use xlink:href="#DejaVuSans-11" transform="translate(63.625 0)"/>
       <use xlink:href="#DejaVuSans-13" transform="translate(95.40625 0)"/>
       <use xlink:href="#DejaVuSans-14" transform="translate(159.03125 0)"/>
      </g>
     </g>
    </g>
    <g id="xtick_3">
     <g id="line2d_3">
      <g>
       <use xlink:href="#m14655ba4b6" x="137.365933" y="231.477656" style="stroke: #000000; stroke-width: 0.8"/>
      </g>
     </g>
     <g id="text_3">
      <!-- 0.02 -->
      <g transform="translate(126.233121 246.075312) scale(0.1 -0.1)">
       <defs>
        <path id="DejaVuSans-15" d="M 1228 531
L 3431 531
L 3431 0
L 469 0
L 469 531
Q 828 903 1448 1529
Q 2069 2156 2228 2338
Q 2531 2678 2651 2914
Q 2772 3150 2772 3378
Q 2772 3750 2511 3984
Q 2250 4219 1831 4219
Q 1534 4219 1204 4116
Q 875 4013 500 3803
L 500 4441
Q 881 4594 1212 4672
Q 1544 4750 1819 4750
Q 2544 4750 2975 4387
Q 3406 4025 3406 3419
Q 3406 3131 3298 2873
Q 3191 2616 2906 2266
Q 2828 2175 2409 1742
Q 1991 1309 1228 531
z
" transform="scale(0.015625)"/>
       </defs>
       <use xlink:href="#DejaVuSans-13"/>
       <use xlink:href="#DejaVuSans-11" transform="translate(63.625 0)"/>
       <use xlink:href="#DejaVuSans-13" transform="translate(95.40625 0)"/>
       <use xlink:href="#DejaVuSans-15" transform="translate(159.03125 0)"/>
      </g>
     </g>
    </g>
    <g id="xtick_4">
     <g id="line2d_4">
      <g>
       <use xlink:href="#m14655ba4b6" x="176.550102" y="231.477656" style="stroke: #000000; stroke-width: 0.8"/>
      </g>
     </g>
     <g id="text_4">
      <!-- 0.03 -->
      <g transform="translate(165.41729 246.075312) scale(0.1 -0.1)">
       <defs>
        <path id="DejaVuSans-16" d="M 2597 2516
Q 3050 2419 3304 2112
Q 3559 1806 3559 1356
Q 3559 666 3084 287
Q 2609 -91 1734 -91
Q 1441 -91 1130 -33
Q 819 25 488 141
L 488 750
Q 750 597 1062 519
Q 1375 441 1716 441
Q 2309 441 2620 675
Q 2931 909 2931 1356
Q 2931 1769 2642 2001
Q 2353 2234 1838 2234
L 1294 2234
L 1294 2753
L 1863 2753
Q 2328 2753 2575 2939
Q 2822 3125 2822 3475
Q 2822 3834 2567 4026
Q 2313 4219 1838 4219
Q 1578 4219 1281 4162
Q 984 4106 628 3988
L 628 4550
Q 988 4650 1302 4700
Q 1616 4750 1894 4750
Q 2613 4750 3031 4423
Q 3450 4097 3450 3541
Q 3450 3153 3228 2886
Q 3006 2619 2597 2516
z
" transform="scale(0.015625)"/>
       </defs>
       <use xlink:href="#DejaVuSans-13"/>
       <use xlink:href="#DejaVuSans-11" transform="translate(63.625 0)"/>
       <use xlink:href="#DejaVuSans-13" transform="translate(95.40625 0)"/>
       <use xlink:href="#DejaVuSans-16" transform="translate(159.03125 0)"/>
      </g>
     </g>
    </g>
    <g id="xtick_5">
     <g id="line2d_5">
      <g>
       <use xlink:href="#m14655ba4b6" x="215.734272" y="231.477656" style="stroke: #000000; stroke-width: 0.8"/>
      </g>
     </g>
     <g id="text_5">
      <!-- 0.04 -->
      <g transform="translate(204.601459 246.075312) scale(0.1 -0.1)">
       <defs>
        <path id="DejaVuSans-17" d="M 2419 4116
L 825 1625
L 2419 1625
L 2419 4116
z
M 2253 4666
L 3047 4666
L 3047 1625
L 3713 1625
L 3713 1100
L 3047 1100
L 3047 0
L 2419 0
L 2419 1100
L 313 1100
L 313 1709
L 2253 4666
z
" transform="scale(0.015625)"/>
       </defs>
       <use xlink:href="#DejaVuSans-13"/>
       <use xlink:href="#DejaVuSans-11" transform="translate(63.625 0)"/>
       <use xlink:href="#DejaVuSans-13" transform="translate(95.40625 0)"/>
       <use xlink:href="#DejaVuSans-17" transform="translate(159.03125 0)"/>
      </g>
     </g>
    </g>
    <g id="xtick_6">
     <g id="line2d_6">
      <g>
       <use xlink:href="#m14655ba4b6" x="254.918441" y="231.477656" style="stroke: #000000; stroke-width: 0.8"/>
      </g>
     </g>
     <g id="text_6">
      <!-- 0.05 -->
      <g transform="translate(243.785628 246.075312) scale(0.1 -0.1)">
       <defs>
        <path id="DejaVuSans-18" d="M 691 4666
L 3169 4666
L 3169 4134
L 1269 4134
L 1269 2991
Q 1406 3038 1543 3061
Q 1681 3084 1819 3084
Q 2600 3084 3056 2656
Q 3513 2228 3513 1497
Q 3513 744 3044 326
Q 2575 -91 1722 -91
Q 1428 -91 1123 -41
Q 819 9 494 109
L 494 744
Q 775 591 1075 516
Q 1375 441 1709 441
Q 2250 441 2565 725
Q 2881 1009 2881 1497
Q 2881 1984 2565 2268
Q 2250 2553 1709 2553
Q 1456 2553 1204 2497
Q 953 2441 691 2322
L 691 4666
z
" transform="scale(0.015625)"/>
       </defs>
       <use xlink:href="#DejaVuSans-13"/>
       <use xlink:href="#DejaVuSans-11" transform="translate(63.625 0)"/>
       <use xlink:href="#DejaVuSans-13" transform="translate(95.40625 0)"/>
       <use xlink:href="#DejaVuSans-18" transform="translate(159.03125 0)"/>
      </g>
     </g>
    </g>
    <g id="xtick_7">
     <g id="line2d_7">
      <g>
       <use xlink:href="#m14655ba4b6" x="294.10261" y="231.477656" style="stroke: #000000; stroke-width: 0.8"/>
      </g>
     </g>
     <g id="text_7">
      <!-- 0.06 -->
      <g transform="translate(282.969798 246.075312) scale(0.1 -0.1)">
       <defs>
        <path id="DejaVuSans-19" d="M 2113 2584
Q 1688 2584 1439 2293
Q 1191 2003 1191 1497
Q 1191 994 1439 701
Q 1688 409 2113 409
Q 2538 409 2786 701
Q 3034 994 3034 1497
Q 3034 2003 2786 2293
Q 2538 2584 2113 2584
z
M 3366 4563
L 3366 3988
Q 3128 4100 2886 4159
Q 2644 4219 2406 4219
Q 1781 4219 1451 3797
Q 1122 3375 1075 2522
Q 1259 2794 1537 2939
Q 1816 3084 2150 3084
Q 2853 3084 3261 2657
Q 3669 2231 3669 1497
Q 3669 778 3244 343
Q 2819 -91 2113 -91
Q 1303 -91 875 529
Q 447 1150 447 2328
Q 447 3434 972 4092
Q 1497 4750 2381 4750
Q 2619 4750 2861 4703
Q 3103 4656 3366 4563
z
" transform="scale(0.015625)"/>
       </defs>
       <use xlink:href="#DejaVuSans-13"/>
       <use xlink:href="#DejaVuSans-11" transform="translate(63.625 0)"/>
       <use xlink:href="#DejaVuSans-13" transform="translate(95.40625 0)"/>
       <use xlink:href="#DejaVuSans-19" transform="translate(159.03125 0)"/>
      </g>
     </g>
    </g>
    <g id="text_8">
     <!-- Time (s) -->
     <g transform="translate(156.218852 260.076094) scale(0.1 -0.1)">
      <defs>
       <path id="DejaVuSans-37" d="M -19 4666
L 3928 4666
L 3928 4134
L 2272 4134
L 2272 0
L 1638 0
L 1638 4134
L -19 4134
L -19 4666
z
" transform="scale(0.015625)"/>
       <path id="DejaVuSans-4c" d="M 603 3500
L 1178 3500
L 1178 0
L 603 0
L 603 3500
z
M 603 4863
L 1178 4863
L 1178 4134
L 603 4134
L 603 4863
z
" transform="scale(0.015625)"/>
       <path id="DejaVuSans-50" d="M 3328 2828
Q 3544 3216 3844 3400
Q 4144 3584 4550 3584
Q 5097 3584 5394 3201
Q 5691 2819 5691 2113
L 5691 0
L 5113 0
L 5113 2094
Q 5113 2597 4934 2840
Q 4756 3084 4391 3084
Q 3944 3084 3684 2787
Q 3425 2491 3425 1978
L 3425 0
L 2847 0
L 2847 2094
Q 2847 2600 2669 2842
Q 2491 3084 2119 3084
Q 1678 3084 1418 2786
Q 1159 2488 1159 1978
L 1159 0
L 581 0
L 581 3500
L 1159 3500
L 1159 2956
Q 1356 3278 1631 3431
Q 1906 3584 2284 3584
Q 2666 3584 2933 3390
Q 3200 3197 3328 2828
z
" transform="scale(0.015625)"/>
       <path id="DejaVuSans-48" d="M 3597 1894
L 3597 1613
L 953 1613
Q 991 1019 1311 708
Q 1631 397 2203 397
Q 2534 397 2845 478
Q 3156 559 3463 722
L 3463 178
Q 3153 47 2828 -22
Q 2503 -91 2169 -91
Q 1331 -91 842 396
Q 353 884 353 1716
Q 353 2575 817 3079
Q 1281 3584 2069 3584
Q 2775 3584 3186 3129
Q 3597 2675 3597 1894
z
M 3022 2063
Q 3016 2534 2758 2815
Q 2500 3097 2075 3097
Q 1594 3097 1305 2825
Q 1016 2553 972 2059
L 3022 2063
z
" transform="scale(0.015625)"/>
       <path id="DejaVuSans-3" transform="scale(0.015625)"/>
       <path id="DejaVuSans-b" d="M 1984 4856
Q 1566 4138 1362 3434
Q 1159 2731 1159 2009
Q 1159 1288 1364 580
Q 1569 -128 1984 -844
L 1484 -844
Q 1016 -109 783 600
Q 550 1309 550 2009
Q 550 2706 781 3412
Q 1013 4119 1484 4856
L 1984 4856
z
" transform="scale(0.015625)"/>
       <path id="DejaVuSans-56" d="M 2834 3397
L 2834 2853
Q 2591 2978 2328 3040
Q 2066 3103 1784 3103
Q 1356 3103 1142 2972
Q 928 2841 928 2578
Q 928 2378 1081 2264
Q 1234 2150 1697 2047
L 1894 2003
Q 2506 1872 2764 1633
Q 3022 1394 3022 966
Q 3022 478 2636 193
Q 2250 -91 1575 -91
Q 1294 -91 989 -36
Q 684 19 347 128
L 347 722
Q 666 556 975 473
Q 1284 391 1588 391
Q 1994 391 2212 530
Q 2431 669 2431 922
Q 2431 1156 2273 1281
Q 2116 1406 1581 1522
L 1381 1569
Q 847 1681 609 1914
Q 372 2147 372 2553
Q 372 3047 722 3315
Q 1072 3584 1716 3584
Q 2034 3584 2315 3537
Q 2597 3491 2834 3397
z
" transform="scale(0.015625)"/>
       <path id="DejaVuSans-c" d="M 513 4856
L 1013 4856
Q 1481 4119 1714 3412
Q 1947 2706 1947 2009
Q 1947 1309 1714 600
Q 1481 -109 1013 -844
L 513 -844
Q 928 -128 1133 580
Q 1338 1288 1338 2009
Q 1338 2731 1133 3434
Q 928 4138 513 4856
z
" transform="scale(0.015625)"/>
      </defs>
      <use xlink:href="#DejaVuSans-37"/>
      <use xlink:href="#DejaVuSans-4c" transform="translate(58 0)"/>
      <use xlink:href="#DejaVuSans-50" transform="translate(85.78125 0)"/>
      <use xlink:href="#DejaVuSans-48" transform="translate(183.1875 0)"/>
      <use xlink:href="#DejaVuSans-3" transform="translate(244.71875 0)"/>
      <use xlink:href="#DejaVuSans-b" transform="translate(276.5 0)"/>
      <use xlink:href="#DejaVuSans-56" transform="translate(315.515625 0)"/>
      <use xlink:href="#DejaVuSans-c" transform="translate(367.609375 0)"/>
     </g>
    </g>
   </g>
   <g id="matplotlib.axis_2">
    <g id="ytick_1">
     <g id="line2d_8">
      <defs>
       <path id="m316d92cb1e" d="M 0 0
L -3.5 0
" style="stroke: #000000; stroke-width: 0.8"/>
      </defs>
      <g>
       <use xlink:href="#m316d92cb1e" x="47.242344" y="222.145036" style="stroke: #000000; stroke-width: 0.8"/>
      </g>
     </g>
     <g id="text_9">
      <!-- −4 -->
      <g transform="translate(25.500156 225.943864) scale(0.1 -0.1)">
       <defs>
        <path id="DejaVuSans-c9c" d="M 678 2272
L 4684 2272
L 4684 1741
L 678 1741
L 678 2272
z
" transform="scale(0.015625)"/>
       </defs>
       <use xlink:href="#DejaVuSans-c9c"/>
       <use xlink:href="#DejaVuSans-17" transform="translate(83.796875 0)"/>
      </g>
     </g>
    </g>
    <g id="ytick_2">
     <g id="line2d_9">
      <g>
       <use xlink:href="#m316d92cb1e" x="47.242344" y="198.642121" style="stroke: #000000; stroke-width: 0.8"/>
      </g>
     </g>
     <g id="text_10">
      <!-- −2 -->
      <g transform="translate(25.500156 202.440949) scale(0.1 -0.1)">
       <use xlink:href="#DejaVuSans-c9c"/>
       <use xlink:href="#DejaVuSans-15" transform="translate(83.796875 0)"/>
      </g>
     </g>
    </g>
    <g id="ytick_3">
     <g id="line2d_10">
      <g>
       <use xlink:href="#m316d92cb1e" x="47.242344" y="175.139207" style="stroke: #000000; stroke-width: 0.8"/>
      </g>
     </g>
     <g id="text_11">
      <!-- 0 -->
      <g transform="translate(33.879844 178.938035) scale(0.1 -0.1)">
       <use xlink:href="#DejaVuSans-13"/>
      </g>
     </g>
    </g>
    <g id="ytick_4">
     <g id="line2d_11">
      <g>
       <use xlink:href="#m316d92cb1e" x="47.242344" y="151.636293" style="stroke: #000000; stroke-width: 0.8"/>
      </g>
     </g>
     <g id="text_12">
      <!-- 2 -->
      <g transform="translate(33.879844 155.435121) scale(0.1 -0.1)">
       <use xlink:href="#DejaVuSans-15"/>
      </g>
     </g>
    </g>
    <g id="ytick_5">
     <g id="line2d_12">
      <g>
       <use xlink:href="#m316d92cb1e" x="47.242344" y="128.133379" style="stroke: #000000; stroke-width: 0.8"/>
      </g>
     </g>
     <g id="text_13">
      <!-- 4 -->
      <g transform="translate(33.879844 131.932207) scale(0.1 -0.1)">
       <use xlink:href="#DejaVuSans-17"/>
      </g>
     </g>
    </g>
    <g id="ytick_6">
     <g id="line2d_13">
      <g>
       <use xlink:href="#m316d92cb1e" x="47.242344" y="104.630465" style="stroke: #000000; stroke-width: 0.8"/>
      </g>
     </g>
     <g id="text_14">
      <!-- 6 -->
      <g transform="translate(33.879844 108.429293) scale(0.1 -0.1)">
       <use xlink:href="#DejaVuSans-19"/>
      </g>
     </g>
    </g>
    <g id="ytick_7">
     <g id="line2d_14">
      <g>
       <use xlink:href="#m316d92cb1e" x="47.242344" y="81.12755" style="stroke: #000000; stroke-width: 0.8"/>
      </g>
     </g>
     <g id="text_15">
      <!-- 8 -->
      <g transform="translate(33.879844 84.926379) scale(0.1 -0.1)">
       <defs>
        <path id="DejaVuSans-1b" d="M 2034 2216
Q 1584 2216 1326 1975
Q 1069 1734 1069 1313
Q 1069 891 1326 650
Q 1584 409 2034 409
Q 2484 409 2743 651
Q 3003 894 3003 1313
Q 3003 1734 2745 1975
Q 2488 2216 2034 2216
z
M 1403 2484
Q 997 2584 770 2862
Q 544 3141 544 3541
Q 544 4100 942 4425
Q 1341 4750 2034 4750
Q 2731 4750 3128 4425
Q 3525 4100 3525 3541
Q 3525 3141 3298 2862
Q 3072 2584 2669 2484
Q 3125 2378 3379 2068
Q 3634 1759 3634 1313
Q 3634 634 3220 271
Q 2806 -91 2034 -91
Q 1263 -91 848 271
Q 434 634 434 1313
Q 434 1759 690 2068
Q 947 2378 1403 2484
z
M 1172 3481
Q 1172 3119 1398 2916
Q 1625 2713 2034 2713
Q 2441 2713 2670 2916
Q 2900 3119 2900 3481
Q 2900 3844 2670 4047
Q 2441 4250 2034 4250
Q 1625 4250 1398 4047
Q 1172 3844 1172 3481
z
" transform="scale(0.015625)"/>
       </defs>
       <use xlink:href="#DejaVuSans-1b"/>
      </g>
     </g>
    </g>
    <g id="ytick_8">
     <g id="line2d_15">
      <g>
       <use xlink:href="#m316d92cb1e" x="47.242344" y="57.624636" style="stroke: #000000; stroke-width: 0.8"/>
      </g>
     </g>
     <g id="text_16">
      <!-- 10 -->
      <g transform="translate(27.517344 61.423464) scale(0.1 -0.1)">
       <use xlink:href="#DejaVuSans-14"/>
       <use xlink:href="#DejaVuSans-13" transform="translate(63.625 0)"/>
      </g>
     </g>
    </g>
    <g id="ytick_9">
     <g id="line2d_16">
      <g>
       <use xlink:href="#m316d92cb1e" x="47.242344" y="34.121722" style="stroke: #000000; stroke-width: 0.8"/>
      </g>
     </g>
     <g id="text_17">
      <!-- 12 -->
      <g transform="translate(27.517344 37.92055) scale(0.1 -0.1)">
       <use xlink:href="#DejaVuSans-14"/>
       <use xlink:href="#DejaVuSans-15" transform="translate(63.625 0)"/>
      </g>
     </g>
    </g>
    <g id="text_18">
     <!-- Signed mean layer gap (mm) -->
     <g transform="translate(19.097812 202.111016) rotate(-90) scale(0.1 -0.1)">
      <defs>
       <path id="DejaVuSans-36" d="M 3425 4513
L 3425 3897
Q 3066 4069 2747 4153
Q 2428 4238 2131 4238
Q 1616 4238 1336 4038
Q 1056 3838 1056 3469
Q 1056 3159 1242 3001
Q 1428 2844 1947 2747
L 2328 2669
Q 3034 2534 3370 2195
Q 3706 1856 3706 1288
Q 3706 609 3251 259
Q 2797 -91 1919 -91
Q 1588 -91 1214 -16
Q 841 59 441 206
L 441 856
Q 825 641 1194 531
Q 1563 422 1919 422
Q 2459 422 2753 634
Q 3047 847 3047 1241
Q 3047 1584 2836 1778
Q 2625 1972 2144 2069
L 1759 2144
Q 1053 2284 737 2584
Q 422 2884 422 3419
Q 422 4038 858 4394
Q 1294 4750 2059 4750
Q 2388 4750 2728 4690
Q 3069 4631 3425 4513
z
" transform="scale(0.015625)"/>
       <path id="DejaVuSans-4a" d="M 2906 1791
Q 2906 2416 2648 2759
Q 2391 3103 1925 3103
Q 1463 3103 1205 2759
Q 947 2416 947 1791
Q 947 1169 1205 825
Q 1463 481 1925 481
Q 2391 481 2648 825
Q 2906 1169 2906 1791
z
M 3481 434
Q 3481 -459 3084 -895
Q 2688 -1331 1869 -1331
Q 1566 -1331 1297 -1286
Q 1028 -1241 775 -1147
L 775 -588
Q 1028 -725 1275 -790
Q 1522 -856 1778 -856
Q 2344 -856 2625 -561
Q 2906 -266 2906 331
L 2906 616
Q 2728 306 2450 153
Q 2172 0 1784 0
Q 1141 0 747 490
Q 353 981 353 1791
Q 353 2603 747 3093
Q 1141 3584 1784 3584
Q 2172 3584 2450 3431
Q 2728 3278 2906 2969
L 2906 3500
L 3481 3500
L 3481 434
z
" transform="scale(0.015625)"/>
       <path id="DejaVuSans-51" d="M 3513 2113
L 3513 0
L 2938 0
L 2938 2094
Q 2938 2591 2744 2837
Q 2550 3084 2163 3084
Q 1697 3084 1428 2787
Q 1159 2491 1159 1978
L 1159 0
L 581 0
L 581 3500
L 1159 3500
L 1159 2956
Q 1366 3272 1645 3428
Q 1925 3584 2291 3584
Q 2894 3584 3203 3211
Q 3513 2838 3513 2113
z
" transform="scale(0.015625)"/>
       <path id="DejaVuSans-47" d="M 2906 2969
L 2906 4863
L 3481 4863
L 3481 0
L 2906 0
L 2906 525
Q 2725 213 2448 61
Q 2172 -91 1784 -91
Q 1150 -91 751 415
Q 353 922 353 1747
Q 353 2572 751 3078
Q 1150 3584 1784 3584
Q 2172 3584 2448 3432
Q 2725 3281 2906 2969
z
M 947 1747
Q 947 1113 1208 752
Q 1469 391 1925 391
Q 2381 391 2643 752
Q 2906 1113 2906 1747
Q 2906 2381 2643 2742
Q 2381 3103 1925 3103
Q 1469 3103 1208 2742
Q 947 2381 947 1747
z
" transform="scale(0.015625)"/>
       <path id="DejaVuSans-44" d="M 2194 1759
Q 1497 1759 1228 1600
Q 959 1441 959 1056
Q 959 750 1161 570
Q 1363 391 1709 391
Q 2188 391 2477 730
Q 2766 1069 2766 1631
L 2766 1759
L 2194 1759
z
M 3341 1997
L 3341 0
L 2766 0
L 2766 531
Q 2569 213 2275 61
Q 1981 -91 1556 -91
Q 1019 -91 701 211
Q 384 513 384 1019
Q 384 1609 779 1909
Q 1175 2209 1959 2209
L 2766 2209
L 2766 2266
Q 2766 2663 2505 2880
Q 2244 3097 1772 3097
Q 1472 3097 1187 3025
Q 903 2953 641 2809
L 641 3341
Q 956 3463 1253 3523
Q 1550 3584 1831 3584
Q 2591 3584 2966 3190
Q 3341 2797 3341 1997
z
" transform="scale(0.015625)"/>
       <path id="DejaVuSans-4f" d="M 603 4863
L 1178 4863
L 1178 0
L 603 0
L 603 4863
z
" transform="scale(0.015625)"/>
       <path id="DejaVuSans-5c" d="M 2059 -325
Q 1816 -950 1584 -1140
Q 1353 -1331 966 -1331
L 506 -1331
L 506 -850
L 844 -850
Q 1081 -850 1212 -737
Q 1344 -625 1503 -206
L 1606 56
L 191 3500
L 800 3500
L 1894 763
L 2988 3500
L 3597 3500
L 2059 -325
z
" transform="scale(0.015625)"/>
       <path id="DejaVuSans-55" d="M 2631 2963
Q 2534 3019 2420 3045
Q 2306 3072 2169 3072
Q 1681 3072 1420 2755
Q 1159 2438 1159 1844
L 1159 0
L 581 0
L 581 3500
L 1159 3500
L 1159 2956
Q 1341 3275 1631 3429
Q 1922 3584 2338 3584
Q 2397 3584 2469 3576
Q 2541 3569 2628 3553
L 2631 2963
z
" transform="scale(0.015625)"/>
       <path id="DejaVuSans-53" d="M 1159 525
L 1159 -1331
L 581 -1331
L 581 3500
L 1159 3500
L 1159 2969
Q 1341 3281 1617 3432
Q 1894 3584 2278 3584
Q 2916 3584 3314 3078
Q 3713 2572 3713 1747
Q 3713 922 3314 415
Q 2916 -91 2278 -91
Q 1894 -91 1617 61
Q 1341 213 1159 525
z
M 3116 1747
Q 3116 2381 2855 2742
Q 2594 3103 2138 3103
Q 1681 3103 1420 2742
Q 1159 2381 1159 1747
Q 1159 1113 1420 752
Q 1681 391 2138 391
Q 2594 391 2855 752
Q 3116 1113 3116 1747
z
" transform="scale(0.015625)"/>
      </defs>
      <use xlink:href="#DejaVuSans-36"/>
      <use xlink:href="#DejaVuSans-4c" transform="translate(63.484375 0)"/>
      <use xlink:href="#DejaVuSans-4a" transform="translate(91.265625 0)"/>
      <use xlink:href="#DejaVuSans-51" transform="translate(154.75 0)"/>
      <use xlink:href="#DejaVuSans-48" transform="translate(218.125 0)"/>
      <use xlink:href="#DejaVuSans-47" transform="translate(279.65625 0)"/>
      <use xlink:href="#DejaVuSans-3" transform="translate(343.140625 0)"/>
      <use xlink:href="#DejaVuSans-50" transform="translate(374.921875 0)"/>
      <use xlink:href="#DejaVuSans-48" transform="translate(472.328125 0)"/>
      <use xlink:href="#DejaVuSans-44" transform="translate(533.859375 0)"/>
      <use xlink:href="#DejaVuSans-51" transform="translate(595.140625 0)"/>
      <use xlink:href="#DejaVuSans-3" transform="translate(658.515625 0)"/>
      <use xlink:href="#DejaVuSans-4f" transform="translate(690.296875 0)"/>
      <use xlink:href="#DejaVuSans-44" transform="translate(718.078125 0)"/>
      <use xlink:href="#DejaVuSans-5c" transform="translate(779.359375 0)"/>
      <use xlink:href="#DejaVuSans-48" transform="translate(838.546875 0)"/>
      <use xlink:href="#DejaVuSans-55" transform="translate(900.078125 0)"/>
      <use xlink:href="#DejaVuSans-3" transform="translate(941.1875 0)"/>
      <use xlink:href="#DejaVuSans-4a" transform="translate(972.96875 0)"/>
      <use xlink:href="#DejaVuSans-44" transform="translate(1036.453125 0)"/>
      <use xlink:href="#DejaVuSans-53" transform="translate(1097.734375 0)"/>
      <use xlink:href="#DejaVuSans-3" transform="translate(1161.21875 0)"/>
      <use xlink:href="#DejaVuSans-b" transform="translate(1193 0)"/>
      <use xlink:href="#DejaVuSans-50" transform="translate(1232.015625 0)"/>
      <use xlink:href="#DejaVuSans-50" transform="translate(1329.421875 0)"/>
      <use xlink:href="#DejaVuSans-c" transform="translate(1426.828125 0)"/>
     </g>
    </g>
   </g>
   <g id="line2d_17">
    <path d="M 58.997595 81.12755
L 62.916011 83.477842
L 66.834428 85.828133
L 70.752845 88.178425
L 74.671262 90.528716
L 78.589679 92.879008
L 82.508096 95.229299
L 86.426513 97.57959
L 90.34493 99.929882
L 94.263347 102.280173
L 98.181764 104.630465
L 102.100181 106.980756
L 106.018598 109.331047
L 109.937015 111.681339
L 113.855432 114.03163
L 117.773848 116.381922
L 121.692265 118.732213
L 125.610682 121.082505
L 129.529099 123.432796
L 133.447516 125.783087
L 137.365933 128.133379
L 141.28435 130.48367
L 145.202767 132.833962
L 149.121184 135.184253
L 153.039601 137.534544
L 156.958018 139.884836
L 160.876435 142.235127
L 164.794852 144.585419
L 168.713269 146.93571
L 172.631685 149.286002
L 176.550102 151.636293
L 180.468519 153.986584
L 184.386936 156.336876
L 188.305353 158.687167
L 192.22377 161.037459
L 196.142187 163.38775
L 200.060604 165.738042
L 203.979021 168.088333
L 207.897438 170.438624
L 211.815855 172.788916
L 215.734272 175.139207
L 219.652689 177.489499
L 223.571105 179.83979
L 227.489522 182.190081
L 231.407939 184.540373
L 235.326356 186.890664
L 239.244773 189.240956
L 243.16319 191.591247
L 247.081607 193.941539
L 251.000024 196.29183
L 254.918441 198.642121
L 258.836858 200.992413
L 262.755275 203.342704
L 266.673692 205.692996
L 270.592109 208.043287
L 274.510526 210.393578
L 278.428942 212.74387
L 282.347359 215.094161
L 286.265776 217.444453
L 290.184193 219.794744
L 294.10261 222.145036
" clip-path="url(#p6cd9f138fc)" style="fill: none; stroke: #1f77b4; stroke-width: 1.5; stroke-linecap: square"/>
   </g>
   <g id="line2d_18">
    <path d="M 58.997595 81.12755
L 62.916011 83.411693
L 66.834428 85.556343
L 70.752845 87.547648
L 74.671262 89.372988
L 78.589679 91.021295
L 82.508096 92.483318
L 86.426513 93.751853
L 90.34493 94.821907
L 94.263347 95.690809
L 98.181764 96.358245
L 102.100181 96.826234
L 106.018598 97.099036
L 109.937015 97.182998
L 113.855432 97.086343
L 117.773848 96.818923
L 121.692265 96.391921
L 125.610682 95.81753
L 129.529099 95.108618
L 133.447516 94.278376
L 137.365933 93.339969
L 141.28435 92.306203
L 145.202767 91.189198
L 149.121184 90.000094
L 153.039601 88.748783
L 156.958018 87.443776
L 160.876435 86.092327
L 164.794852 84.700716
L 168.713269 83.274498
L 172.631685 81.818671
L 176.550102 80.337799
L 180.468519 78.836071
L 184.386936 77.317321
L 188.305353 75.785041
L 192.22377 74.242417
L 196.142187 72.692355
L 200.060604 71.137521
L 203.979021 69.580378
L 207.897438 68.023194
L 211.815855 66.468023
L 215.734272 64.916688
L 219.652689 63.370772
L 223.571105 61.831606
L 227.489522 60.300258
L 231.407939 58.777534
L 235.326356 57.263972
L 239.244773 55.759841
L 243.16319 54.265149
L 247.081607 52.779666
L 251.000024 51.303
L 254.918441 49.834684
L 258.836858 48.374221
L 262.755275 46.921085
L 266.673692 45.474735
L 270.592109 44.034612
L 274.510526 42.600148
L 278.428942 41.170769
L 282.347359 39.745898
L 286.265776 38.32496
L 290.184193 36.907386
L 294.10261 35.492621
" clip-path="url(#p6cd9f138fc)" style="fill: none; stroke: #ff7f0e; stroke-width: 1.5; stroke-linecap: square"/>
   </g>
   <g id="line2d_19">
    <path d="M 58.997595 81.12755
L 62.916011 83.411693
L 66.834428 85.556343
L 70.752845 87.547648
L 74.671262 89.372988
L 78.589679 91.021295
L 82.508096 92.483318
L 86.426513 93.751853
L 90.34493 94.821907
L 94.263347 95.690809
L 98.181764 96.358245
L 102.100181 96.826234
L 106.018598 97.099036
L 109.937015 97.182998
L 113.855432 97.086343
L 117.773848 96.818923
L 121.692265 96.391921
L 125.610682 95.81753
L 129.529099 95.108618
L 133.447516 94.278376
L 137.365933 93.339969
L 141.28435 92.306203
L 145.202767 91.189198
L 149.121184 90.000094
L 153.039601 88.748783
L 156.958018 87.443776
L 160.876435 86.092327
L 164.794852 84.700716
L 168.713269 83.274498
L 172.631685 81.818671
L 176.550102 80.337799
L 180.468519 78.836071
L 184.386936 77.317321
L 188.305353 75.785041
L 192.22377 74.242417
L 196.142187 72.692355
L 200.060604 71.137521
L 203.979021 69.580378
L 207.897438 68.023194
L 211.815855 66.468023
L 215.734272 64.916688
L 219.652689 63.370772
L 223.571105 61.831606
L 227.489522 60.300258
L 231.407939 58.777534
L 235.326356 57.263972
L 239.244773 55.759841
L 243.16319 54.265149
L 247.081607 52.779666
L 251.000024 51.303
L 254.918441 49.834684
L 258.836858 48.374221
L 262.755275 46.921085
L 266.673692 45.474735
L 270.592109 44.034612
L 274.510526 42.600148
L 278.428942 41.170769
L 282.347359 39.745898
L 286.265776 38.32496
L 290.184193 36.907386
L 294.10261 35.492621
" clip-path="url(#p6cd9f138fc)" style="fill: none; stroke: #2ca02c; stroke-width: 1.5; stroke-linecap: square"/>
   </g>
   <g id="line2d_20">
    <path d="M 47.242344 163.38775
L 305.857861 163.38775
" clip-path="url(#p6cd9f138fc)" style="fill: none; stroke-dasharray: 1.5,2.475; stroke-dashoffset: 0; stroke: #808080; stroke-width: 1.5"/>
   </g>
   <g id="line2d_21">
    <path d="M 47.242344 175.139207
L 305.857861 175.139207
" clip-path="url(#p6cd9f138fc)" style="fill: none; stroke: #000000; stroke-width: 0.5; stroke-linecap: square"/>
   </g>
   <g id="patch_3">
    <path d="M 47.242344 231.477656
L 47.242344 26.16
" style="fill: none; stroke: #000000; stroke-width: 0.8; stroke-linejoin: miter; stroke-linecap: square"/>
   </g>
   <g id="patch_4">
    <path d="M 305.857861 231.477656
L 305.857861 26.16
" style="fill: none; stroke: #000000; stroke-width: 0.8; stroke-linejoin: miter; stroke-linecap: square"/>
   </g>
   <g id="patch_5">
    <path d="M 47.242344 231.477656
L 305.857861 231.477656
" style="fill: none; stroke: #000000; stroke-width: 0.8; stroke-linejoin: miter; stroke-linecap: square"/>
   </g>
   <g id="patch_6">
    <path d="M 47.242344 26.16
L 305.857861 26.16
" style="fill: none; stroke: #000000; stroke-width: 0.8; stroke-linejoin: miter; stroke-linecap: square"/>
   </g>
   <g id="text_19">
    <!-- face_approach -->
    <g transform="translate(132.69104 20.16) scale(0.12 -0.12)">
     <defs>
      <path id="DejaVuSans-49" d="M 2375 4863
L 2375 4384
L 1825 4384
Q 1516 4384 1395 4259
Q 1275 4134 1275 3809
L 1275 3500
L 2222 3500
L 2222 3053
L 1275 3053
L 1275 0
L 697 0
L 697 3053
L 147 3053
L 147 3500
L 697 3500
L 697 3744
Q 697 4328 969 4595
Q 1241 4863 1831 4863
L 2375 4863
z
" transform="scale(0.015625)"/>
      <path id="DejaVuSans-46" d="M 3122 3366
L 3122 2828
Q 2878 2963 2633 3030
Q 2388 3097 2138 3097
Q 1578 3097 1268 2742
Q 959 2388 959 1747
Q 959 1106 1268 751
Q 1578 397 2138 397
Q 2388 397 2633 464
Q 2878 531 3122 666
L 3122 134
Q 2881 22 2623 -34
Q 2366 -91 2075 -91
Q 1284 -91 818 406
Q 353 903 353 1747
Q 353 2603 823 3093
Q 1294 3584 2113 3584
Q 2378 3584 2631 3529
Q 2884 3475 3122 3366
z
" transform="scale(0.015625)"/>
      <path id="DejaVuSans-42" d="M 3263 -1063
L 3263 -1509
L -63 -1509
L -63 -1063
L 3263 -1063
z
" transform="scale(0.015625)"/>
      <path id="DejaVuSans-52" d="M 1959 3097
Q 1497 3097 1228 2736
Q 959 2375 959 1747
Q 959 1119 1226 758
Q 1494 397 1959 397
Q 2419 397 2687 759
Q 2956 1122 2956 1747
Q 2956 2369 2687 2733
Q 2419 3097 1959 3097
z
M 1959 3584
Q 2709 3584 3137 3096
Q 3566 2609 3566 1747
Q 3566 888 3137 398
Q 2709 -91 1959 -91
Q 1206 -91 779 398
Q 353 888 353 1747
Q 353 2609 779 3096
Q 1206 3584 1959 3584
z
" transform="scale(0.015625)"/>
      <path id="DejaVuSans-4b" d="M 3513 2113
L 3513 0
L 2938 0
L 2938 2094
Q 2938 2591 2744 2837
Q 2550 3084 2163 3084
Q 1697 3084 1428 2787
Q 1159 2491 1159 1978
L 1159 0
L 581 0
L 581 4863
L 1159 4863
L 1159 2956
Q 1366 3272 1645 3428
Q 1925 3584 2291 3584
Q 2894 3584 3203 3211
Q 3513 2838 3513 2113
z
" transform="scale(0.015625)"/>
     </defs>
     <use xlink:href="#DejaVuSans-49"/>
     <use xlink:href="#DejaVuSans-44" transform="translate(35.203125 0)"/>
     <use xlink:href="#DejaVuSans-46" transform="translate(96.484375 0)"/>
     <use xlink:href="#DejaVuSans-48" transform="translate(151.46875 0)"/>
     <use xlink:href="#DejaVuSans-42" transform="translate(213 0)"/>
     <use xlink:href="#DejaVuSans-44" transform="translate(263 0)"/>
     <use xlink:href="#DejaVuSans-53" transform="translate(324.28125 0)"/>
     <use xlink:href="#DejaVuSans-53" transform="translate(387.765625 0)"/>
     <use xlink:href="#DejaVuSans-55" transform="translate(451.25 0)"/>
     <use xlink:href="#DejaVuSans-52" transform="translate(490.15625 0)"/>
     <use xlink:href="#DejaVuSans-44" transform="translate(551.34375 0)"/>
     <use xlink:href="#DejaVuSans-46" transform="translate(612.625 0)"/>
     <use xlink:href="#DejaVuSans-4b" transform="translate(667.609375 0)"/>
    </g>
   </g>
   <g id="legend_1">
    <g id="patch_7">
     <path d="M 52.142344 73.762187
L 130.005313 73.762187
Q 131.405313 73.762187 131.405313 72.362187
L 131.405313 31.06
Q 131.405313 29.66 130.005313 29.66
L 52.142344 29.66
Q 50.742344 29.66 50.742344 31.06
L 50.742344 72.362187
Q 50.742344 73.762187 52.142344 73.762187
z
" style="fill: #ffffff; opacity: 0.8; stroke: #cccccc; stroke-linejoin: miter"/>
    </g>
    <g id="line2d_22">
     <path d="M 53.542344 35.328906
L 60.542344 35.328906
L 67.542344 35.328906
" style="fill: none; stroke: #1f77b4; stroke-width: 1.5; stroke-linecap: square"/>
    </g>
    <g id="text_20">
     <!-- off / lbvh -->
     <g transform="translate(73.142344 37.778906) scale(0.07 -0.07)">
      <defs>
       <path id="DejaVuSans-13ae" d="M 4531 4863
L 4531 4384
L 3981 4384
Q 3672 4384 3551 4259
Q 3431 4134 3431 3809
L 3431 3500
L 4378 3500
L 4378 3053
L 3431 3053
L 3431 0
L 2853 0
L 2853 3053
L 1275 3053
L 1275 0
L 697 0
L 697 3053
L 147 3053
L 147 3500
L 697 3500
L 697 3744
Q 697 4328 969 4595
Q 1241 4863 1831 4863
L 2375 4863
L 2375 4384
L 1825 4384
Q 1516 4384 1394 4259
Q 1275 4134 1275 3809
L 1275 3500
L 2853 3500
L 2853 3744
Q 2853 4328 3125 4595
Q 3397 4863 3988 4863
L 4531 4863
z
" transform="scale(0.015625)"/>
       <path id="DejaVuSans-12" d="M 1625 4666
L 2156 4666
L 531 -594
L 0 -594
L 1625 4666
z
" transform="scale(0.015625)"/>
       <path id="DejaVuSans-45" d="M 3116 1747
Q 3116 2381 2855 2742
Q 2594 3103 2138 3103
Q 1681 3103 1420 2742
Q 1159 2381 1159 1747
Q 1159 1113 1420 752
Q 1681 391 2138 391
Q 2594 391 2855 752
Q 3116 1113 3116 1747
z
M 1159 2969
Q 1341 3281 1617 3432
Q 1894 3584 2278 3584
Q 2916 3584 3314 3078
Q 3713 2572 3713 1747
Q 3713 922 3314 415
Q 2916 -91 2278 -91
Q 1894 -91 1617 61
Q 1341 213 1159 525
L 1159 0
L 581 0
L 581 4863
L 1159 4863
L 1159 2969
z
" transform="scale(0.015625)"/>
       <path id="DejaVuSans-59" d="M 191 3500
L 800 3500
L 1894 563
L 2988 3500
L 3597 3500
L 2284 0
L 1503 0
L 191 3500
z
" transform="scale(0.015625)"/>
      </defs>
      <use xlink:href="#DejaVuSans-52"/>
      <use xlink:href="#DejaVuSans-13ae" transform="translate(61.1875 0)"/>
      <use xlink:href="#DejaVuSans-3" transform="translate(130.078125 0)"/>
      <use xlink:href="#DejaVuSans-12" transform="translate(161.859375 0)"/>
      <use xlink:href="#DejaVuSans-3" transform="translate(195.546875 0)"/>
      <use xlink:href="#DejaVuSans-4f" transform="translate(227.328125 0)"/>
      <use xlink:href="#DejaVuSans-45" transform="translate(255.109375 0)"/>
      <use xlink:href="#DejaVuSans-59" transform="translate(318.59375 0)"/>
      <use xlink:href="#DejaVuSans-4b" transform="translate(377.78125 0)"/>
     </g>
    </g>
    <g id="line2d_23">
     <path d="M 53.542344 45.829453
L 60.542344 45.829453
L 67.542344 45.829453
" style="fill: none; stroke: #ff7f0e; stroke-width: 1.5; stroke-linecap: square"/>
    </g>
    <g id="text_21">
     <!-- on / lbvh -->
     <g transform="translate(73.142344 48.279453) scale(0.07 -0.07)">
      <use xlink:href="#DejaVuSans-52"/>
      <use xlink:href="#DejaVuSans-51" transform="translate(61.1875 0)"/>
      <use xlink:href="#DejaVuSans-3" transform="translate(124.5625 0)"/>
      <use xlink:href="#DejaVuSans-12" transform="translate(156.34375 0)"/>
      <use xlink:href="#DejaVuSans-3" transform="translate(190.03125 0)"/>
      <use xlink:href="#DejaVuSans-4f" transform="translate(221.8125 0)"/>
      <use xlink:href="#DejaVuSans-45" transform="translate(249.59375 0)"/>
      <use xlink:href="#DejaVuSans-59" transform="translate(313.078125 0)"/>
      <use xlink:href="#DejaVuSans-4b" transform="translate(372.265625 0)"/>
     </g>
    </g>
    <g id="line2d_24">
     <path d="M 53.542344 56.33
L 60.542344 56.33
L 67.542344 56.33
" style="fill: none; stroke: #2ca02c; stroke-width: 1.5; stroke-linecap: square"/>
    </g>
    <g id="text_22">
     <!-- on / brute_force -->
     <g transform="translate(73.142344 58.78) scale(0.07 -0.07)">
      <defs>
       <path id="DejaVuSans-58" d="M 544 1381
L 544 3500
L 1119 3500
L 1119 1403
Q 1119 906 1312 657
Q 1506 409 1894 409
Q 2359 409 2629 706
Q 2900 1003 2900 1516
L 2900 3500
L 3475 3500
L 3475 0
L 2900 0
L 2900 538
Q 2691 219 2414 64
Q 2138 -91 1772 -91
Q 1169 -91 856 284
Q 544 659 544 1381
z
M 1991 3584
L 1991 3584
z
" transform="scale(0.015625)"/>
       <path id="DejaVuSans-57" d="M 1172 4494
L 1172 3500
L 2356 3500
L 2356 3053
L 1172 3053
L 1172 1153
Q 1172 725 1289 603
Q 1406 481 1766 481
L 2356 481
L 2356 0
L 1766 0
Q 1100 0 847 248
Q 594 497 594 1153
L 594 3053
L 172 3053
L 172 3500
L 594 3500
L 594 4494
L 1172 4494
z
" transform="scale(0.015625)"/>
      </defs>
      <use xlink:href="#DejaVuSans-52"/>
      <use xlink:href="#DejaVuSans-51" transform="translate(61.1875 0)"/>
      <use xlink:href="#DejaVuSans-3" transform="translate(124.5625 0)"/>
      <use xlink:href="#DejaVuSans-12" transform="translate(156.34375 0)"/>
      <use xlink:href="#DejaVuSans-3" transform="translate(190.03125 0)"/>
      <use xlink:href="#DejaVuSans-45" transform="translate(221.8125 0)"/>
      <use xlink:href="#DejaVuSans-55" transform="translate(285.296875 0)"/>
      <use xlink:href="#DejaVuSans-58" transform="translate(326.40625 0)"/>
      <use xlink:href="#DejaVuSans-57" transform="translate(389.78125 0)"/>
      <use xlink:href="#DejaVuSans-48" transform="translate(428.984375 0)"/>
      <use xlink:href="#DejaVuSans-42" transform="translate(490.515625 0)"/>
      <use xlink:href="#DejaVuSans-49" transform="translate(540.515625 0)"/>
      <use xlink:href="#DejaVuSans-52" transform="translate(575.71875 0)"/>
      <use xlink:href="#DejaVuSans-55" transform="translate(636.90625 0)"/>
      <use xlink:href="#DejaVuSans-46" transform="translate(675.8125 0)"/>
      <use xlink:href="#DejaVuSans-48" transform="translate(730.796875 0)"/>
     </g>
    </g>
    <g id="line2d_25">
     <path d="M 53.542344 66.830547
L 60.542344 66.830547
L 67.542344 66.830547
" style="fill: none; stroke-dasharray: 1.5,2.475; stroke-dashoffset: 0; stroke: #808080; stroke-width: 1.5"/>
    </g>
    <g id="text_23">
     <!-- dmin 1 mm -->
     <g transform="translate(73.142344 69.280547) scale(0.07 -0.07)">
      <use xlink:href="#DejaVuSans-47"/>
      <use xlink:href="#DejaVuSans-50" transform="translate(63.484375 0)"/>
      <use xlink:href="#DejaVuSans-4c" transform="translate(160.890625 0)"/>
      <use xlink:href="#DejaVuSans-51" transform="translate(188.671875 0)"/>
      <use xlink:href="#DejaVuSans-3" transform="translate(252.046875 0)"/>
      <use xlink:href="#DejaVuSans-14" transform="translate(283.828125 0)"/>
      <use xlink:href="#DejaVuSans-3" transform="translate(347.453125 0)"/>
      <use xlink:href="#DejaVuSans-50" transform="translate(379.234375 0)"/>
      <use xlink:href="#DejaVuSans-50" transform="translate(476.640625 0)"/>
     </g>
    </g>
   </g>
  </g>
  <g id="axes_2">
   <g id="patch_8">
    <path d="M 354.562344 231.477656
L 613.177861 231.477656
L 613.177861 26.16
L 354.562344 26.16
z
" style="fill: #ffffff"/>
   </g>
   <g id="matplotlib.axis_3">
    <g id="xtick_8">
     <g id="line2d_26">
      <g>
       <use xlink:href="#m14655ba4b6" x="366.317595" y="231.477656" style="stroke: #000000; stroke-width: 0.8"/>
      </g>
     </g>
     <g id="text_24">
      <!-- 0.00 -->
      <g transform="translate(355.184782 246.075312) scale(0.1 -0.1)">
       <use xlink:href="#DejaVuSans-13"/>
       <use xlink:href="#DejaVuSans-11" transform="translate(63.625 0)"/>
       <use xlink:href="#DejaVuSans-13" transform="translate(95.40625 0)"/>
       <use xlink:href="#DejaVuSans-13" transform="translate(159.03125 0)"/>
      </g>
     </g>
    </g>
    <g id="xtick_9">
     <g id="line2d_27">
      <g>
       <use xlink:href="#m14655ba4b6" x="405.501764" y="231.477656" style="stroke: #000000; stroke-width: 0.8"/>
      </g>
     </g>
     <g id="text_25">
      <!-- 0.01 -->
      <g transform="translate(394.368951 246.075312) scale(0.1 -0.1)">
       <use xlink:href="#DejaVuSans-13"/>
       <use xlink:href="#DejaVuSans-11" transform="translate(63.625 0)"/>
       <use xlink:href="#DejaVuSans-13" transform="translate(95.40625 0)"/>
       <use xlink:href="#DejaVuSans-14" transform="translate(159.03125 0)"/>
      </g>
     </g>
    </g>
    <g id="xtick_10">
     <g id="line2d_28">
      <g>
       <use xlink:href="#m14655ba4b6" x="444.685933" y="231.477656" style="stroke: #000000; stroke-width: 0.8"/>
      </g>
     </g>
     <g id="text_26">
      <!-- 0.02 -->
      <g transform="translate(433.553121 246.075312) scale(0.1 -0.1)">
       <use xlink:href="#DejaVuSans-13"/>
       <use xlink:href="#DejaVuSans-11" transform="translate(63.625 0)"/>
       <use xlink:href="#DejaVuSans-13" transform="translate(95.40625 0)"/>
       <use xlink:href="#DejaVuSans-15" transform="translate(159.03125 0)"/>
      </g>
     </g>
    </g>
    <g id="xtick_11">
     <g id="line2d_29">
      <g>
       <use xlink:href="#m14655ba4b6" x="483.870102" y="231.477656" style="stroke: #000000; stroke-width: 0.8"/>
      </g>
     </g>
     <g id="text_27">
      <!-- 0.03 -->
      <g transform="translate(472.73729 246.075312) scale(0.1 -0.1)">
       <use xlink:href="#DejaVuSans-13"/>
       <use xlink:href="#DejaVuSans-11" transform="translate(63.625 0)"/>
       <use xlink:href="#DejaVuSans-13" transform="translate(95.40625 0)"/>
       <use xlink:href="#DejaVuSans-16" transform="translate(159.03125 0)"/>
      </g>
     </g>
    </g>
    <g id="xtick_12">
     <g id="line2d_30">
      <g>
       <use xlink:href="#m14655ba4b6" x="523.054272" y="231.477656" style="stroke: #000000; stroke-width: 0.8"/>
      </g>
     </g>
     <g id="text_28">
      <!-- 0.04 -->
      <g transform="translate(511.921459 246.075312) scale(0.1 -0.1)">
       <use xlink:href="#DejaVuSans-13"/>
       <use xlink:href="#DejaVuSans-11" transform="translate(63.625 0)"/>
       <use xlink:href="#DejaVuSans-13" transform="translate(95.40625 0)"/>
       <use xlink:href="#DejaVuSans-17" transform="translate(159.03125 0)"/>
      </g>
     </g>
    </g>
    <g id="xtick_13">
     <g id="line2d_31">
      <g>
       <use xlink:href="#m14655ba4b6" x="562.238441" y="231.477656" style="stroke: #000000; stroke-width: 0.8"/>
      </g>
     </g>
     <g id="text_29">
      <!-- 0.05 -->
      <g transform="translate(551.105628 246.075312) scale(0.1 -0.1)">
       <use xlink:href="#DejaVuSans-13"/>
       <use xlink:href="#DejaVuSans-11" transform="translate(63.625 0)"/>
       <use xlink:href="#DejaVuSans-13" transform="translate(95.40625 0)"/>
       <use xlink:href="#DejaVuSans-18" transform="translate(159.03125 0)"/>
      </g>
     </g>
    </g>
    <g id="xtick_14">
     <g id="line2d_32">
      <g>
       <use xlink:href="#m14655ba4b6" x="601.42261" y="231.477656" style="stroke: #000000; stroke-width: 0.8"/>
      </g>
     </g>
     <g id="text_30">
      <!-- 0.06 -->
      <g transform="translate(590.289798 246.075312) scale(0.1 -0.1)">
       <use xlink:href="#DejaVuSans-13"/>
       <use xlink:href="#DejaVuSans-11" transform="translate(63.625 0)"/>
       <use xlink:href="#DejaVuSans-13" transform="translate(95.40625 0)"/>
       <use xlink:href="#DejaVuSans-19" transform="translate(159.03125 0)"/>
      </g>
     </g>
    </g>
    <g id="text_31">
     <!-- Time (s) -->
     <g transform="translate(463.538852 260.076094) scale(0.1 -0.1)">
      <use xlink:href="#DejaVuSans-37"/>
      <use xlink:href="#DejaVuSans-4c" transform="translate(58 0)"/>
      <use xlink:href="#DejaVuSans-50" transform="translate(85.78125 0)"/>
      <use xlink:href="#DejaVuSans-48" transform="translate(183.1875 0)"/>
      <use xlink:href="#DejaVuSans-3" transform="translate(244.71875 0)"/>
      <use xlink:href="#DejaVuSans-b" transform="translate(276.5 0)"/>
      <use xlink:href="#DejaVuSans-56" transform="translate(315.515625 0)"/>
      <use xlink:href="#DejaVuSans-c" transform="translate(367.609375 0)"/>
     </g>
    </g>
   </g>
   <g id="matplotlib.axis_4">
    <g id="ytick_10">
     <g id="line2d_33">
      <g>
       <use xlink:href="#m316d92cb1e" x="354.562344" y="222.145036" style="stroke: #000000; stroke-width: 0.8"/>
      </g>
     </g>
     <g id="text_32">
      <!-- −4 -->
      <g transform="translate(332.820156 225.943864) scale(0.1 -0.1)">
       <use xlink:href="#DejaVuSans-c9c"/>
       <use xlink:href="#DejaVuSans-17" transform="translate(83.796875 0)"/>
      </g>
     </g>
    </g>
    <g id="ytick_11">
     <g id="line2d_34">
      <g>
       <use xlink:href="#m316d92cb1e" x="354.562344" y="193.729021" style="stroke: #000000; stroke-width: 0.8"/>
      </g>
     </g>
     <g id="text_33">
      <!-- −2 -->
      <g transform="translate(332.820156 197.527849) scale(0.1 -0.1)">
       <use xlink:href="#DejaVuSans-c9c"/>
       <use xlink:href="#DejaVuSans-15" transform="translate(83.796875 0)"/>
      </g>
     </g>
    </g>
    <g id="ytick_12">
     <g id="line2d_35">
      <g>
       <use xlink:href="#m316d92cb1e" x="354.562344" y="165.313006" style="stroke: #000000; stroke-width: 0.8"/>
      </g>
     </g>
     <g id="text_34">
      <!-- 0 -->
      <g transform="translate(341.199844 169.111834) scale(0.1 -0.1)">
       <use xlink:href="#DejaVuSans-13"/>
      </g>
     </g>
    </g>
    <g id="ytick_13">
     <g id="line2d_36">
      <g>
       <use xlink:href="#m316d92cb1e" x="354.562344" y="136.896991" style="stroke: #000000; stroke-width: 0.8"/>
      </g>
     </g>
     <g id="text_35">
      <!-- 2 -->
      <g transform="translate(341.199844 140.695819) scale(0.1 -0.1)">
       <use xlink:href="#DejaVuSans-15"/>
      </g>
     </g>
    </g>
    <g id="ytick_14">
     <g id="line2d_37">
      <g>
       <use xlink:href="#m316d92cb1e" x="354.562344" y="108.480976" style="stroke: #000000; stroke-width: 0.8"/>
      </g>
     </g>
     <g id="text_36">
      <!-- 4 -->
      <g transform="translate(341.199844 112.279804) scale(0.1 -0.1)">
       <use xlink:href="#DejaVuSans-17"/>
      </g>
     </g>
    </g>
    <g id="ytick_15">
     <g id="line2d_38">
      <g>
       <use xlink:href="#m316d92cb1e" x="354.562344" y="80.064961" style="stroke: #000000; stroke-width: 0.8"/>
      </g>
     </g>
     <g id="text_37">
      <!-- 6 -->
      <g transform="translate(341.199844 83.863789) scale(0.1 -0.1)">
       <use xlink:href="#DejaVuSans-19"/>
      </g>
     </g>
    </g>
    <g id="ytick_16">
     <g id="line2d_39">
      <g>
       <use xlink:href="#m316d92cb1e" x="354.562344" y="51.648946" style="stroke: #000000; stroke-width: 0.8"/>
      </g>
     </g>
     <g id="text_38">
      <!-- 8 -->
      <g transform="translate(341.199844 55.447774) scale(0.1 -0.1)">
       <use xlink:href="#DejaVuSans-1b"/>
      </g>
     </g>
    </g>
    <g id="text_39">
     <!-- Signed mean layer gap (mm) -->
     <g transform="translate(326.417812 202.111016) rotate(-90) scale(0.1 -0.1)">
      <use xlink:href="#DejaVuSans-36"/>
      <use xlink:href="#DejaVuSans-4c" transform="translate(63.484375 0)"/>
      <use xlink:href="#DejaVuSans-4a" transform="translate(91.265625 0)"/>
      <use xlink:href="#DejaVuSans-51" transform="translate(154.75 0)"/>
      <use xlink:href="#DejaVuSans-48" transform="translate(218.125 0)"/>
      <use xlink:href="#DejaVuSans-47" transform="translate(279.65625 0)"/>
      <use xlink:href="#DejaVuSans-3" transform="translate(343.140625 0)"/>
      <use xlink:href="#DejaVuSans-50" transform="translate(374.921875 0)"/>
      <use xlink:href="#DejaVuSans-48" transform="translate(472.328125 0)"/>
      <use xlink:href="#DejaVuSans-44" transform="translate(533.859375 0)"/>
      <use xlink:href="#DejaVuSans-51" transform="translate(595.140625 0)"/>
      <use xlink:href="#DejaVuSans-3" transform="translate(658.515625 0)"/>
      <use xlink:href="#DejaVuSans-4f" transform="translate(690.296875 0)"/>
      <use xlink:href="#DejaVuSans-44" transform="translate(718.078125 0)"/>
      <use xlink:href="#DejaVuSans-5c" transform="translate(779.359375 0)"/>
      <use xlink:href="#DejaVuSans-48" transform="translate(838.546875 0)"/>
      <use xlink:href="#DejaVuSans-55" transform="translate(900.078125 0)"/>
      <use xlink:href="#DejaVuSans-3" transform="translate(941.1875 0)"/>
      <use xlink:href="#DejaVuSans-4a" transform="translate(972.96875 0)"/>
      <use xlink:href="#DejaVuSans-44" transform="translate(1036.453125 0)"/>
      <use xlink:href="#DejaVuSans-53" transform="translate(1097.734375 0)"/>
      <use xlink:href="#DejaVuSans-3" transform="translate(1161.21875 0)"/>
      <use xlink:href="#DejaVuSans-b" transform="translate(1193 0)"/>
      <use xlink:href="#DejaVuSans-50" transform="translate(1232.015625 0)"/>
      <use xlink:href="#DejaVuSans-50" transform="translate(1329.421875 0)"/>
      <use xlink:href="#DejaVuSans-c" transform="translate(1426.828125 0)"/>
     </g>
    </g>
   </g>
   <g id="line2d_40">
    <path d="M 366.317595 51.648946
L 370.236011 54.490548
L 374.154428 57.332149
L 378.072845 60.173751
L 381.991262 63.015352
L 385.909679 65.856953
L 389.828096 68.698555
L 393.746513 71.540156
L 397.66493 74.381758
L 401.583347 77.223359
L 405.501764 80.064961
L 409.420181 82.906562
L 413.338598 85.748164
L 417.257015 88.589765
L 421.175432 91.431367
L 425.093848 94.272968
L 429.012265 97.11457
L 432.930682 99.956171
L 436.849099 102.797773
L 440.767516 105.639374
L 444.685933 108.480976
L 448.60435 111.322577
L 452.522767 114.164179
L 456.441184 117.00578
L 460.359601 119.847382
L 464.278018 122.688983
L 468.196435 125.530585
L 472.114852 128.372186
L 476.033269 131.213788
L 479.951685 134.055389
L 483.870102 136.896991
L 487.788519 139.738592
L 491.706936 142.580194
L 495.625353 145.421795
L 499.54377 148.263397
L 503.462187 151.104998
L 507.380604 153.9466
L 511.299021 156.788201
L 515.217438 159.629803
L 519.135855 162.471404
L 523.054272 165.313006
L 526.972689 168.154607
L 530.891105 170.996209
L 534.809522 173.83781
L 538.727939 176.679412
L 542.646356 179.521013
L 546.564773 182.362615
L 550.48319 185.204216
L 554.401607 188.045818
L 558.320024 190.887419
L 562.238441 193.729021
L 566.156858 196.570622
L 570.075275 199.412224
L 573.993692 202.253825
L 577.912109 205.095427
L 581.830526 207.937028
L 585.748942 210.77863
L 589.667359 213.620231
L 593.585776 216.461833
L 597.504193 219.303434
L 601.42261 222.145036
" clip-path="url(#p3791cf6edd)" style="fill: none; stroke: #1f77b4; stroke-width: 1.5; stroke-linecap: square"/>
   </g>
   <g id="line2d_41">
    <path d="M 366.317595 51.648946
L 370.236011 54.410596
L 374.154428 57.003843
L 378.072845 59.412565
L 381.991262 61.622624
L 385.909679 63.622296
L 389.828096 65.402625
L 393.746513 66.957695
L 397.66493 68.284801
L 401.583347 69.384516
L 405.501764 70.260653
L 409.420181 70.920114
L 413.338598 71.372645
L 417.257015 71.630494
L 421.175432 71.708004
L 425.093848 71.621131
L 429.012265 71.386924
L 432.930682 71.02298
L 436.849099 70.546882
L 440.767516 69.975647
L 444.685933 69.32519
L 448.60435 68.60983
L 452.522767 67.841937
L 456.441184 67.03183
L 460.359601 66.187942
L 464.278018 65.317114
L 468.196435 64.42485
L 472.114852 63.515534
L 476.033269 62.592716
L 479.951685 61.659353
L 483.870102 60.717958
L 487.788519 59.770725
L 491.706936 58.819631
L 495.625353 57.866489
L 499.54377 56.912956
L 503.462187 55.960536
L 507.380604 55.010597
L 511.299021 54.064401
L 515.217438 53.123132
L 519.135855 52.187904
L 523.054272 51.259759
L 526.972689 50.339669
L 530.891105 49.428555
L 534.809522 48.527308
L 538.727939 47.636803
L 542.646356 46.7579
L 546.564773 45.891446
L 550.48319 45.038269
L 554.401607 44.199178
L 558.320024 43.37496
L 562.238441 42.56638
L 566.156858 41.774188
L 570.075275 40.999109
L 573.993692 40.241844
L 577.912109 39.503069
L 581.830526 38.783429
L 585.748942 38.083542
L 589.667359 37.403989
L 593.585776 36.745319
L 597.504193 36.108041
L 601.42261 35.492621
" clip-path="url(#p3791cf6edd)" style="fill: none; stroke: #ff7f0e; stroke-width: 1.5; stroke-linecap: square"/>
   </g>
   <g id="line2d_42">
    <path d="M 366.317595 51.648946
L 370.236011 54.410596
L 374.154428 57.003843
L 378.072845 59.412565
L 381.991262 61.622624
L 385.909679 63.622296
L 389.828096 65.402625
L 393.746513 66.957695
L 397.66493 68.284801
L 401.583347 69.384516
L 405.501764 70.260653
L 409.420181 70.920114
L 413.338598 71.372645
L 417.257015 71.630494
L 421.175432 71.708004
L 425.093848 71.621131
L 429.012265 71.386924
L 432.930682 71.02298
L 436.849099 70.546882
L 440.767516 69.975647
L 444.685933 69.32519
L 448.60435 68.60983
L 452.522767 67.841937
L 456.441184 67.03183
L 460.359601 66.187942
L 464.278018 65.317114
L 468.196435 64.42485
L 472.114852 63.515534
L 476.033269 62.592716
L 479.951685 61.659353
L 483.870102 60.717958
L 487.788519 59.770725
L 491.706936 58.819631
L 495.625353 57.866489
L 499.54377 56.912956
L 503.462187 55.960536
L 507.380604 55.010597
L 511.299021 54.064401
L 515.217438 53.123132
L 519.135855 52.187904
L 523.054272 51.259759
L 526.972689 50.339669
L 530.891105 49.428555
L 534.809522 48.527308
L 538.727939 47.636803
L 542.646356 46.7579
L 546.564773 45.891446
L 550.48319 45.038269
L 554.401607 44.199178
L 558.320024 43.37496
L 562.238441 42.56638
L 566.156858 41.774188
L 570.075275 40.999109
L 573.993692 40.241844
L 577.912109 39.503069
L 581.830526 38.783429
L 585.748942 38.083542
L 589.667359 37.403989
L 593.585776 36.745319
L 597.504193 36.108041
L 601.42261 35.492621
" clip-path="url(#p3791cf6edd)" style="fill: none; stroke: #2ca02c; stroke-width: 1.5; stroke-linecap: square"/>
   </g>
   <g id="line2d_43">
    <path d="M 354.562344 151.104998
L 613.177861 151.104998
" clip-path="url(#p3791cf6edd)" style="fill: none; stroke-dasharray: 1.5,2.475; stroke-dashoffset: 0; stroke: #808080; stroke-width: 1.5"/>
   </g>
   <g id="line2d_44">
    <path d="M 354.562344 165.313006
L 613.177861 165.313006
" clip-path="url(#p3791cf6edd)" style="fill: none; stroke: #000000; stroke-width: 0.5; stroke-linecap: square"/>
   </g>
   <g id="patch_9">
    <path d="M 354.562344 231.477656
L 354.562344 26.16
" style="fill: none; stroke: #000000; stroke-width: 0.8; stroke-linejoin: miter; stroke-linecap: square"/>
   </g>
   <g id="patch_10">
    <path d="M 613.177861 231.477656
L 613.177861 26.16
" style="fill: none; stroke: #000000; stroke-width: 0.8; stroke-linejoin: miter; stroke-linecap: square"/>
   </g>
   <g id="patch_11">
    <path d="M 354.562344 231.477656
L 613.177861 231.477656
" style="fill: none; stroke: #000000; stroke-width: 0.8; stroke-linejoin: miter; stroke-linecap: square"/>
   </g>
   <g id="patch_12">
    <path d="M 354.562344 26.16
L 613.177861 26.16
" style="fill: none; stroke: #000000; stroke-width: 0.8; stroke-linejoin: miter; stroke-linecap: square"/>
   </g>
   <g id="text_40">
    <!-- edge_crossing -->
    <g transform="translate(441.033852 20.16) scale(0.12 -0.12)">
     <use xlink:href="#DejaVuSans-48"/>
     <use xlink:href="#DejaVuSans-47" transform="translate(61.53125 0)"/>
     <use xlink:href="#DejaVuSans-4a" transform="translate(125.015625 0)"/>
     <use xlink:href="#DejaVuSans-48" transform="translate(188.5 0)"/>
     <use xlink:href="#DejaVuSans-42" transform="translate(250.03125 0)"/>
     <use xlink:href="#DejaVuSans-46" transform="translate(300.03125 0)"/>
     <use xlink:href="#DejaVuSans-55" transform="translate(355.015625 0)"/>
     <use xlink:href="#DejaVuSans-52" transform="translate(393.921875 0)"/>
     <use xlink:href="#DejaVuSans-56" transform="translate(455.109375 0)"/>
     <use xlink:href="#DejaVuSans-56" transform="translate(507.203125 0)"/>
     <use xlink:href="#DejaVuSans-4c" transform="translate(559.296875 0)"/>
     <use xlink:href="#DejaVuSans-51" transform="translate(587.078125 0)"/>
     <use xlink:href="#DejaVuSans-4a" transform="translate(650.453125 0)"/>
    </g>
   </g>
   <g id="legend_2">
    <g id="patch_13">
     <path d="M 359.462344 227.977656
L 437.325312 227.977656
Q 438.725312 227.977656 438.725312 226.577656
L 438.725312 185.275469
Q 438.725312 183.875469 437.325312 183.875469
L 359.462344 183.875469
Q 358.062344 183.875469 358.062344 185.275469
L 358.062344 226.577656
Q 358.062344 227.977656 359.462344 227.977656
z
" style="fill: #ffffff; opacity: 0.8; stroke: #cccccc; stroke-linejoin: miter"/>
    </g>
    <g id="line2d_45">
     <path d="M 360.862344 189.544375
L 367.862344 189.544375
L 374.862344 189.544375
" style="fill: none; stroke: #1f77b4; stroke-width: 1.5; stroke-linecap: square"/>
    </g>
    <g id="text_41">
     <!-- off / lbvh -->
     <g transform="translate(380.462344 191.994375) scale(0.07 -0.07)">
      <use xlink:href="#DejaVuSans-52"/>
      <use xlink:href="#DejaVuSans-13ae" transform="translate(61.1875 0)"/>
      <use xlink:href="#DejaVuSans-3" transform="translate(130.078125 0)"/>
      <use xlink:href="#DejaVuSans-12" transform="translate(161.859375 0)"/>
      <use xlink:href="#DejaVuSans-3" transform="translate(195.546875 0)"/>
      <use xlink:href="#DejaVuSans-4f" transform="translate(227.328125 0)"/>
      <use xlink:href="#DejaVuSans-45" transform="translate(255.109375 0)"/>
      <use xlink:href="#DejaVuSans-59" transform="translate(318.59375 0)"/>
      <use xlink:href="#DejaVuSans-4b" transform="translate(377.78125 0)"/>
     </g>
    </g>
    <g id="line2d_46">
     <path d="M 360.862344 200.044922
L 367.862344 200.044922
L 374.862344 200.044922
" style="fill: none; stroke: #ff7f0e; stroke-width: 1.5; stroke-linecap: square"/>
    </g>
    <g id="text_42">
     <!-- on / lbvh -->
     <g transform="translate(380.462344 202.494922) scale(0.07 -0.07)">
      <use xlink:href="#DejaVuSans-52"/>
      <use xlink:href="#DejaVuSans-51" transform="translate(61.1875 0)"/>
      <use xlink:href="#DejaVuSans-3" transform="translate(124.5625 0)"/>
      <use xlink:href="#DejaVuSans-12" transform="translate(156.34375 0)"/>
      <use xlink:href="#DejaVuSans-3" transform="translate(190.03125 0)"/>
      <use xlink:href="#DejaVuSans-4f" transform="translate(221.8125 0)"/>
      <use xlink:href="#DejaVuSans-45" transform="translate(249.59375 0)"/>
      <use xlink:href="#DejaVuSans-59" transform="translate(313.078125 0)"/>
      <use xlink:href="#DejaVuSans-4b" transform="translate(372.265625 0)"/>
     </g>
    </g>
    <g id="line2d_47">
     <path d="M 360.862344 210.545469
L 367.862344 210.545469
L 374.862344 210.545469
" style="fill: none; stroke: #2ca02c; stroke-width: 1.5; stroke-linecap: square"/>
    </g>
    <g id="text_43">
     <!-- on / brute_force -->
     <g transform="translate(380.462344 212.995469) scale(0.07 -0.07)">
      <use xlink:href="#DejaVuSans-52"/>
      <use xlink:href="#DejaVuSans-51" transform="translate(61.1875 0)"/>
      <use xlink:href="#DejaVuSans-3" transform="translate(124.5625 0)"/>
      <use xlink:href="#DejaVuSans-12" transform="translate(156.34375 0)"/>
      <use xlink:href="#DejaVuSans-3" transform="translate(190.03125 0)"/>
      <use xlink:href="#DejaVuSans-45" transform="translate(221.8125 0)"/>
      <use xlink:href="#DejaVuSans-55" transform="translate(285.296875 0)"/>
      <use xlink:href="#DejaVuSans-58" transform="translate(326.40625 0)"/>
      <use xlink:href="#DejaVuSans-57" transform="translate(389.78125 0)"/>
      <use xlink:href="#DejaVuSans-48" transform="translate(428.984375 0)"/>
      <use xlink:href="#DejaVuSans-42" transform="translate(490.515625 0)"/>
      <use xlink:href="#DejaVuSans-49" transform="translate(540.515625 0)"/>
      <use xlink:href="#DejaVuSans-52" transform="translate(575.71875 0)"/>
      <use xlink:href="#DejaVuSans-55" transform="translate(636.90625 0)"/>
      <use xlink:href="#DejaVuSans-46" transform="translate(675.8125 0)"/>
      <use xlink:href="#DejaVuSans-48" transform="translate(730.796875 0)"/>
     </g>
    </g>
    <g id="line2d_48">
     <path d="M 360.862344 221.046016
L 367.862344 221.046016
L 374.862344 221.046016
" style="fill: none; stroke-dasharray: 1.5,2.475; stroke-dashoffset: 0; stroke: #808080; stroke-width: 1.5"/>
    </g>
    <g id="text_44">
     <!-- dmin 1 mm -->
     <g transform="translate(380.462344 223.496016) scale(0.07 -0.07)">
      <use xlink:href="#DejaVuSans-47"/>
      <use xlink:href="#DejaVuSans-50" transform="translate(63.484375 0)"/>
      <use xlink:href="#DejaVuSans-4c" transform="translate(160.890625 0)"/>
      <use xlink:href="#DejaVuSans-51" transform="translate(188.671875 0)"/>
      <use xlink:href="#DejaVuSans-3" transform="translate(252.046875 0)"/>
      <use xlink:href="#DejaVuSans-14" transform="translate(283.828125 0)"/>
      <use xlink:href="#DejaVuSans-3" transform="translate(347.453125 0)"/>
      <use xlink:href="#DejaVuSans-50" transform="translate(379.234375 0)"/>
      <use xlink:href="#DejaVuSans-50" transform="translate(476.640625 0)"/>
     </g>
    </g>
   </g>
  </g>
  <g id="axes_3">
   <g id="patch_14">
    <path d="M 661.882344 231.477656
L 920.497861 231.477656
L 920.497861 26.16
L 661.882344 26.16
z
" style="fill: #ffffff"/>
   </g>
   <g id="matplotlib.axis_5">
    <g id="xtick_15">
     <g id="line2d_49">
      <g>
       <use xlink:href="#m14655ba4b6" x="673.637595" y="231.477656" style="stroke: #000000; stroke-width: 0.8"/>
      </g>
     </g>
     <g id="text_45">
      <!-- 0.000 -->
      <g transform="translate(659.323532 246.075312) scale(0.1 -0.1)">
       <use xlink:href="#DejaVuSans-13"/>
       <use xlink:href="#DejaVuSans-11" transform="translate(63.625 0)"/>
       <use xlink:href="#DejaVuSans-13" transform="translate(95.40625 0)"/>
       <use xlink:href="#DejaVuSans-13" transform="translate(159.03125 0)"/>
       <use xlink:href="#DejaVuSans-13" transform="translate(222.65625 0)"/>
      </g>
     </g>
    </g>
    <g id="xtick_16">
     <g id="line2d_50">
      <g>
       <use xlink:href="#m14655ba4b6" x="712.821764" y="231.477656" style="stroke: #000000; stroke-width: 0.8"/>
      </g>
     </g>
     <g id="text_46">
      <!-- 0.002 -->
      <g transform="translate(698.507701 246.075312) scale(0.1 -0.1)">
       <use xlink:href="#DejaVuSans-13"/>
       <use xlink:href="#DejaVuSans-11" transform="translate(63.625 0)"/>
       <use xlink:href="#DejaVuSans-13" transform="translate(95.40625 0)"/>
       <use xlink:href="#DejaVuSans-13" transform="translate(159.03125 0)"/>
       <use xlink:href="#DejaVuSans-15" transform="translate(222.65625 0)"/>
      </g>
     </g>
    </g>
    <g id="xtick_17">
     <g id="line2d_51">
      <g>
       <use xlink:href="#m14655ba4b6" x="752.005933" y="231.477656" style="stroke: #000000; stroke-width: 0.8"/>
      </g>
     </g>
     <g id="text_47">
      <!-- 0.004 -->
      <g transform="translate(737.691871 246.075312) scale(0.1 -0.1)">
       <use xlink:href="#DejaVuSans-13"/>
       <use xlink:href="#DejaVuSans-11" transform="translate(63.625 0)"/>
       <use xlink:href="#DejaVuSans-13" transform="translate(95.40625 0)"/>
       <use xlink:href="#DejaVuSans-13" transform="translate(159.03125 0)"/>
       <use xlink:href="#DejaVuSans-17" transform="translate(222.65625 0)"/>
      </g>
     </g>
    </g>
    <g id="xtick_18">
     <g id="line2d_52">
      <g>
       <use xlink:href="#m14655ba4b6" x="791.190102" y="231.477656" style="stroke: #000000; stroke-width: 0.8"/>
      </g>
     </g>
     <g id="text_48">
      <!-- 0.006 -->
      <g transform="translate(776.87604 246.075312) scale(0.1 -0.1)">
       <use xlink:href="#DejaVuSans-13"/>
       <use xlink:href="#DejaVuSans-11" transform="translate(63.625 0)"/>
       <use xlink:href="#DejaVuSans-13" transform="translate(95.40625 0)"/>
       <use xlink:href="#DejaVuSans-13" transform="translate(159.03125 0)"/>
       <use xlink:href="#DejaVuSans-19" transform="translate(222.65625 0)"/>
      </g>
     </g>
    </g>
    <g id="xtick_19">
     <g id="line2d_53">
      <g>
       <use xlink:href="#m14655ba4b6" x="830.374272" y="231.477656" style="stroke: #000000; stroke-width: 0.8"/>
      </g>
     </g>
     <g id="text_49">
      <!-- 0.008 -->
      <g transform="translate(816.060209 246.075312) scale(0.1 -0.1)">
       <use xlink:href="#DejaVuSans-13"/>
       <use xlink:href="#DejaVuSans-11" transform="translate(63.625 0)"/>
       <use xlink:href="#DejaVuSans-13" transform="translate(95.40625 0)"/>
       <use xlink:href="#DejaVuSans-13" transform="translate(159.03125 0)"/>
       <use xlink:href="#DejaVuSans-1b" transform="translate(222.65625 0)"/>
      </g>
     </g>
    </g>
    <g id="xtick_20">
     <g id="line2d_54">
      <g>
       <use xlink:href="#m14655ba4b6" x="869.558441" y="231.477656" style="stroke: #000000; stroke-width: 0.8"/>
      </g>
     </g>
     <g id="text_50">
      <!-- 0.010 -->
      <g transform="translate(855.244378 246.075312) scale(0.1 -0.1)">
       <use xlink:href="#DejaVuSans-13"/>
       <use xlink:href="#DejaVuSans-11" transform="translate(63.625 0)"/>
       <use xlink:href="#DejaVuSans-13" transform="translate(95.40625 0)"/>
       <use xlink:href="#DejaVuSans-14" transform="translate(159.03125 0)"/>
       <use xlink:href="#DejaVuSans-13" transform="translate(222.65625 0)"/>
      </g>
     </g>
    </g>
    <g id="xtick_21">
     <g id="line2d_55">
      <g>
       <use xlink:href="#m14655ba4b6" x="908.74261" y="231.477656" style="stroke: #000000; stroke-width: 0.8"/>
      </g>
     </g>
     <g id="text_51">
      <!-- 0.012 -->
      <g transform="translate(894.428548 246.075312) scale(0.1 -0.1)">
       <use xlink:href="#DejaVuSans-13"/>
       <use xlink:href="#DejaVuSans-11" transform="translate(63.625 0)"/>
       <use xlink:href="#DejaVuSans-13" transform="translate(95.40625 0)"/>
       <use xlink:href="#DejaVuSans-14" transform="translate(159.03125 0)"/>
       <use xlink:href="#DejaVuSans-15" transform="translate(222.65625 0)"/>
      </g>
     </g>
    </g>
    <g id="text_52">
     <!-- Time (s) -->
     <g transform="translate(770.858852 260.076094) scale(0.1 -0.1)">
      <use xlink:href="#DejaVuSans-37"/>
      <use xlink:href="#DejaVuSans-4c" transform="translate(58 0)"/>
      <use xlink:href="#DejaVuSans-50" transform="translate(85.78125 0)"/>
      <use xlink:href="#DejaVuSans-48" transform="translate(183.1875 0)"/>
      <use xlink:href="#DejaVuSans-3" transform="translate(244.71875 0)"/>
      <use xlink:href="#DejaVuSans-b" transform="translate(276.5 0)"/>
      <use xlink:href="#DejaVuSans-56" transform="translate(315.515625 0)"/>
      <use xlink:href="#DejaVuSans-c" transform="translate(367.609375 0)"/>
     </g>
    </g>
   </g>
   <g id="matplotlib.axis_6">
    <g id="ytick_17">
     <g id="line2d_56">
      <g>
       <use xlink:href="#m316d92cb1e" x="661.882344" y="222.145036" style="stroke: #000000; stroke-width: 0.8"/>
      </g>
     </g>
     <g id="text_53">
      <!-- −4 -->
      <g transform="translate(640.140156 225.943864) scale(0.1 -0.1)">
       <use xlink:href="#DejaVuSans-c9c"/>
       <use xlink:href="#DejaVuSans-17" transform="translate(83.796875 0)"/>
      </g>
     </g>
    </g>
    <g id="ytick_18">
     <g id="line2d_57">
      <g>
       <use xlink:href="#m316d92cb1e" x="661.882344" y="191.0363" style="stroke: #000000; stroke-width: 0.8"/>
      </g>
     </g>
     <g id="text_54">
      <!-- −2 -->
      <g transform="translate(640.140156 194.835128) scale(0.1 -0.1)">
       <use xlink:href="#DejaVuSans-c9c"/>
       <use xlink:href="#DejaVuSans-15" transform="translate(83.796875 0)"/>
      </g>
     </g>
    </g>
    <g id="ytick_19">
     <g id="line2d_58">
      <g>
       <use xlink:href="#m316d92cb1e" x="661.882344" y="159.927564" style="stroke: #000000; stroke-width: 0.8"/>
      </g>
     </g>
     <g id="text_55">
      <!-- 0 -->
      <g transform="translate(648.519844 163.726392) scale(0.1 -0.1)">
       <use xlink:href="#DejaVuSans-13"/>
      </g>
     </g>
    </g>
    <g id="ytick_20">
     <g id="line2d_59">
      <g>
       <use xlink:href="#m316d92cb1e" x="661.882344" y="128.818828" style="stroke: #000000; stroke-width: 0.8"/>
      </g>
     </g>
     <g id="text_56">
      <!-- 2 -->
      <g transform="translate(648.519844 132.617656) scale(0.1 -0.1)">
       <use xlink:href="#DejaVuSans-15"/>
      </g>
     </g>
    </g>
    <g id="ytick_21">
     <g id="line2d_60">
      <g>
       <use xlink:href="#m316d92cb1e" x="661.882344" y="97.710092" style="stroke: #000000; stroke-width: 0.8"/>
      </g>
     </g>
     <g id="text_57">
      <!-- 4 -->
      <g transform="translate(648.519844 101.50892) scale(0.1 -0.1)">
       <use xlink:href="#DejaVuSans-17"/>
      </g>
     </g>
    </g>
    <g id="ytick_22">
     <g id="line2d_61">
      <g>
       <use xlink:href="#m316d92cb1e" x="661.882344" y="66.601357" style="stroke: #000000; stroke-width: 0.8"/>
      </g>
     </g>
     <g id="text_58">
      <!-- 6 -->
      <g transform="translate(648.519844 70.400185) scale(0.1 -0.1)">
       <use xlink:href="#DejaVuSans-19"/>
      </g>
     </g>
    </g>
    <g id="ytick_23">
     <g id="line2d_62">
      <g>
       <use xlink:href="#m316d92cb1e" x="661.882344" y="35.492621" style="stroke: #000000; stroke-width: 0.8"/>
      </g>
     </g>
     <g id="text_59">
      <!-- 8 -->
      <g transform="translate(648.519844 39.291449) scale(0.1 -0.1)">
       <use xlink:href="#DejaVuSans-1b"/>
      </g>
     </g>
    </g>
    <g id="text_60">
     <!-- Signed mean layer gap (mm) -->
     <g transform="translate(633.737812 202.111016) rotate(-90) scale(0.1 -0.1)">
      <use xlink:href="#DejaVuSans-36"/>
      <use xlink:href="#DejaVuSans-4c" transform="translate(63.484375 0)"/>
      <use xlink:href="#DejaVuSans-4a" transform="translate(91.265625 0)"/>
      <use xlink:href="#DejaVuSans-51" transform="translate(154.75 0)"/>
      <use xlink:href="#DejaVuSans-48" transform="translate(218.125 0)"/>
      <use xlink:href="#DejaVuSans-47" transform="translate(279.65625 0)"/>
      <use xlink:href="#DejaVuSans-3" transform="translate(343.140625 0)"/>
      <use xlink:href="#DejaVuSans-50" transform="translate(374.921875 0)"/>
      <use xlink:href="#DejaVuSans-48" transform="translate(472.328125 0)"/>
      <use xlink:href="#DejaVuSans-44" transform="translate(533.859375 0)"/>
      <use xlink:href="#DejaVuSans-51" transform="translate(595.140625 0)"/>
      <use xlink:href="#DejaVuSans-3" transform="translate(658.515625 0)"/>
      <use xlink:href="#DejaVuSans-4f" transform="translate(690.296875 0)"/>
      <use xlink:href="#DejaVuSans-44" transform="translate(718.078125 0)"/>
      <use xlink:href="#DejaVuSans-5c" transform="translate(779.359375 0)"/>
      <use xlink:href="#DejaVuSans-48" transform="translate(838.546875 0)"/>
      <use xlink:href="#DejaVuSans-55" transform="translate(900.078125 0)"/>
      <use xlink:href="#DejaVuSans-3" transform="translate(941.1875 0)"/>
      <use xlink:href="#DejaVuSans-4a" transform="translate(972.96875 0)"/>
      <use xlink:href="#DejaVuSans-44" transform="translate(1036.453125 0)"/>
      <use xlink:href="#DejaVuSans-53" transform="translate(1097.734375 0)"/>
      <use xlink:href="#DejaVuSans-3" transform="translate(1161.21875 0)"/>
      <use xlink:href="#DejaVuSans-b" transform="translate(1193 0)"/>
      <use xlink:href="#DejaVuSans-50" transform="translate(1232.015625 0)"/>
      <use xlink:href="#DejaVuSans-50" transform="translate(1329.421875 0)"/>
      <use xlink:href="#DejaVuSans-c" transform="translate(1426.828125 0)"/>
     </g>
    </g>
   </g>
   <g id="line2d_63">
    <path d="M 673.637595 35.492621
L 693.229679 51.046989
L 712.821764 66.601357
L 732.413848 82.155724
L 752.005933 97.710092
L 771.598018 113.26446
L 791.190102 128.818828
L 810.782187 144.373196
L 830.374272 159.927564
L 849.966356 175.481932
L 869.558441 191.0363
L 889.150526 206.590668
L 908.74261 222.145036
" clip-path="url(#pd952f9df22)" style="fill: none; stroke: #1f77b4; stroke-width: 1.5; stroke-linecap: square"/>
   </g>
   <g id="line2d_64">
    <path d="M 673.637595 35.492621
L 693.229679 50.936624
L 712.821764 66.099997
L 732.413848 80.854514
L 752.005933 95.054624
L 771.598018 108.532395
L 791.190102 121.079808
L 810.782187 132.401319
" clip-path="url(#pd952f9df22)" style="fill: none; stroke: #ff7f0e; stroke-width: 1.5; stroke-linecap: square"/>
   </g>
   <g id="line2d_65">
    <path d="M 673.637595 35.492621
L 693.229679 50.936624
L 712.821764 66.099997
L 732.413848 80.854514
L 752.005933 95.054624
L 771.598018 108.532395
L 791.190102 121.079808
L 810.782187 132.401319
" clip-path="url(#pd952f9df22)" style="fill: none; stroke: #2ca02c; stroke-width: 1.5; stroke-linecap: square"/>
   </g>
   <g id="line2d_66">
    <path d="M 661.882344 144.373196
L 920.497861 144.373196
" clip-path="url(#pd952f9df22)" style="fill: none; stroke-dasharray: 1.5,2.475; stroke-dashoffset: 0; stroke: #808080; stroke-width: 1.5"/>
   </g>
   <g id="line2d_67">
    <path d="M 661.882344 159.927564
L 920.497861 159.927564
" clip-path="url(#pd952f9df22)" style="fill: none; stroke: #000000; stroke-width: 0.5; stroke-linecap: square"/>
   </g>
   <g id="patch_15">
    <path d="M 661.882344 231.477656
L 661.882344 26.16
" style="fill: none; stroke: #000000; stroke-width: 0.8; stroke-linejoin: miter; stroke-linecap: square"/>
   </g>
   <g id="patch_16">
    <path d="M 920.497861 231.477656
L 920.497861 26.16
" style="fill: none; stroke: #000000; stroke-width: 0.8; stroke-linejoin: miter; stroke-linecap: square"/>
   </g>
   <g id="patch_17">
    <path d="M 661.882344 231.477656
L 920.497861 231.477656
" style="fill: none; stroke: #000000; stroke-width: 0.8; stroke-linejoin: miter; stroke-linecap: square"/>
   </g>
   <g id="patch_18">
    <path d="M 661.882344 26.16
L 920.497861 26.16
" style="fill: none; stroke: #000000; stroke-width: 0.8; stroke-linejoin: miter; stroke-linecap: square"/>
   </g>
   <g id="text_61">
    <!-- fast_approach -->
    <g transform="translate(748.844165 20.16) scale(0.12 -0.12)">
     <use xlink:href="#DejaVuSans-49"/>
     <use xlink:href="#DejaVuSans-44" transform="translate(35.203125 0)"/>
     <use xlink:href="#DejaVuSans-56" transform="translate(96.484375 0)"/>
     <use xlink:href="#DejaVuSans-57" transform="translate(148.578125 0)"/>
     <use xlink:href="#DejaVuSans-42" transform="translate(187.78125 0)"/>
     <use xlink:href="#DejaVuSans-44" transform="translate(237.78125 0)"/>
     <use xlink:href="#DejaVuSans-53" transform="translate(299.0625 0)"/>
     <use xlink:href="#DejaVuSans-53" transform="translate(362.546875 0)"/>
     <use xlink:href="#DejaVuSans-55" transform="translate(426.03125 0)"/>
     <use xlink:href="#DejaVuSans-52" transform="translate(464.9375 0)"/>
     <use xlink:href="#DejaVuSans-44" transform="translate(526.125 0)"/>
     <use xlink:href="#DejaVuSans-46" transform="translate(587.40625 0)"/>
     <use xlink:href="#DejaVuSans-4b" transform="translate(642.390625 0)"/>
    </g>
   </g>
   <g id="legend_3">
    <g id="patch_19">
     <path d="M 790.969423 73.762187
L 915.597861 73.762187
Q 916.997861 73.762187 916.997861 72.362187
L 916.997861 31.06
Q 916.997861 29.66 915.597861 29.66
L 790.969423 29.66
Q 789.569423 29.66 789.569423 31.06
L 789.569423 72.362187
Q 789.569423 73.762187 790.969423 73.762187
z
" style="fill: #ffffff; opacity: 0.8; stroke: #cccccc; stroke-linejoin: miter"/>
    </g>
    <g id="line2d_68">
     <path d="M 792.369423 35.328906
L 799.369423 35.328906
L 806.369423 35.328906
" style="fill: none; stroke: #1f77b4; stroke-width: 1.5; stroke-linecap: square"/>
    </g>
    <g id="text_62">
     <!-- off / lbvh -->
     <g transform="translate(811.969423 37.778906) scale(0.07 -0.07)">
      <use xlink:href="#DejaVuSans-52"/>
      <use xlink:href="#DejaVuSans-13ae" transform="translate(61.1875 0)"/>
      <use xlink:href="#DejaVuSans-3" transform="translate(130.078125 0)"/>
      <use xlink:href="#DejaVuSans-12" transform="translate(161.859375 0)"/>
      <use xlink:href="#DejaVuSans-3" transform="translate(195.546875 0)"/>
      <use xlink:href="#DejaVuSans-4f" transform="translate(227.328125 0)"/>
      <use xlink:href="#DejaVuSans-45" transform="translate(255.109375 0)"/>
      <use xlink:href="#DejaVuSans-59" transform="translate(318.59375 0)"/>
      <use xlink:href="#DejaVuSans-4b" transform="translate(377.78125 0)"/>
     </g>
    </g>
    <g id="line2d_69">
     <path d="M 792.369423 45.829453
L 799.369423 45.829453
L 806.369423 45.829453
" style="fill: none; stroke: #ff7f0e; stroke-width: 1.5; stroke-linecap: square"/>
    </g>
    <g id="text_63">
     <!-- on / lbvh (incomplete) -->
     <g transform="translate(811.969423 48.279453) scale(0.07 -0.07)">
      <use xlink:href="#DejaVuSans-52"/>
      <use xlink:href="#DejaVuSans-51" transform="translate(61.1875 0)"/>
      <use xlink:href="#DejaVuSans-3" transform="translate(124.5625 0)"/>
      <use xlink:href="#DejaVuSans-12" transform="translate(156.34375 0)"/>
      <use xlink:href="#DejaVuSans-3" transform="translate(190.03125 0)"/>
      <use xlink:href="#DejaVuSans-4f" transform="translate(221.8125 0)"/>
      <use xlink:href="#DejaVuSans-45" transform="translate(249.59375 0)"/>
      <use xlink:href="#DejaVuSans-59" transform="translate(313.078125 0)"/>
      <use xlink:href="#DejaVuSans-4b" transform="translate(372.265625 0)"/>
      <use xlink:href="#DejaVuSans-3" transform="translate(435.640625 0)"/>
      <use xlink:href="#DejaVuSans-b" transform="translate(467.421875 0)"/>
      <use xlink:href="#DejaVuSans-4c" transform="translate(506.4375 0)"/>
      <use xlink:href="#DejaVuSans-51" transform="translate(534.21875 0)"/>
      <use xlink:href="#DejaVuSans-46" transform="translate(597.59375 0)"/>
      <use xlink:href="#DejaVuSans-52" transform="translate(652.578125 0)"/>
      <use xlink:href="#DejaVuSans-50" transform="translate(713.765625 0)"/>
      <use xlink:href="#DejaVuSans-53" transform="translate(811.171875 0)"/>
      <use xlink:href="#DejaVuSans-4f" transform="translate(874.65625 0)"/>
      <use xlink:href="#DejaVuSans-48" transform="translate(902.4375 0)"/>
      <use xlink:href="#DejaVuSans-57" transform="translate(963.96875 0)"/>
      <use xlink:href="#DejaVuSans-48" transform="translate(1003.171875 0)"/>
      <use xlink:href="#DejaVuSans-c" transform="translate(1064.703125 0)"/>
     </g>
    </g>
    <g id="line2d_70">
     <path d="M 792.369423 56.33
L 799.369423 56.33
L 806.369423 56.33
" style="fill: none; stroke: #2ca02c; stroke-width: 1.5; stroke-linecap: square"/>
    </g>
    <g id="text_64">
     <!-- on / brute_force (incomplete) -->
     <g transform="translate(811.969423 58.78) scale(0.07 -0.07)">
      <use xlink:href="#DejaVuSans-52"/>
      <use xlink:href="#DejaVuSans-51" transform="translate(61.1875 0)"/>
      <use xlink:href="#DejaVuSans-3" transform="translate(124.5625 0)"/>
      <use xlink:href="#DejaVuSans-12" transform="translate(156.34375 0)"/>
      <use xlink:href="#DejaVuSans-3" transform="translate(190.03125 0)"/>
      <use xlink:href="#DejaVuSans-45" transform="translate(221.8125 0)"/>
      <use xlink:href="#DejaVuSans-55" transform="translate(285.296875 0)"/>
      <use xlink:href="#DejaVuSans-58" transform="translate(326.40625 0)"/>
      <use xlink:href="#DejaVuSans-57" transform="translate(389.78125 0)"/>
      <use xlink:href="#DejaVuSans-48" transform="translate(428.984375 0)"/>
      <use xlink:href="#DejaVuSans-42" transform="translate(490.515625 0)"/>
      <use xlink:href="#DejaVuSans-49" transform="translate(540.515625 0)"/>
      <use xlink:href="#DejaVuSans-52" transform="translate(575.71875 0)"/>
      <use xlink:href="#DejaVuSans-55" transform="translate(636.90625 0)"/>
      <use xlink:href="#DejaVuSans-46" transform="translate(675.8125 0)"/>
      <use xlink:href="#DejaVuSans-48" transform="translate(730.796875 0)"/>
      <use xlink:href="#DejaVuSans-3" transform="translate(792.328125 0)"/>
      <use xlink:href="#DejaVuSans-b" transform="translate(824.109375 0)"/>
      <use xlink:href="#DejaVuSans-4c" transform="translate(863.125 0)"/>
      <use xlink:href="#DejaVuSans-51" transform="translate(890.90625 0)"/>
      <use xlink:href="#DejaVuSans-46" transform="translate(954.28125 0)"/>
      <use xlink:href="#DejaVuSans-52" transform="translate(1009.265625 0)"/>
      <use xlink:href="#DejaVuSans-50" transform="translate(1070.453125 0)"/>
      <use xlink:href="#DejaVuSans-53" transform="translate(1167.859375 0)"/>
      <use xlink:href="#DejaVuSans-4f" transform="translate(1231.34375 0)"/>
      <use xlink:href="#DejaVuSans-48" transform="translate(1259.125 0)"/>
      <use xlink:href="#DejaVuSans-57" transform="translate(1320.65625 0)"/>
      <use xlink:href="#DejaVuSans-48" transform="translate(1359.859375 0)"/>
      <use xlink:href="#DejaVuSans-c" transform="translate(1421.390625 0)"/>
     </g>
    </g>
    <g id="line2d_71">
     <path d="M 792.369423 66.830547
L 799.369423 66.830547
L 806.369423 66.830547
" style="fill: none; stroke-dasharray: 1.5,2.475; stroke-dashoffset: 0; stroke: #808080; stroke-width: 1.5"/>
    </g>
    <g id="text_65">
     <!-- dmin 1 mm -->
     <g transform="translate(811.969423 69.280547) scale(0.07 -0.07)">
      <use xlink:href="#DejaVuSans-47"/>
      <use xlink:href="#DejaVuSans-50" transform="translate(63.484375 0)"/>
      <use xlink:href="#DejaVuSans-4c" transform="translate(160.890625 0)"/>
      <use xlink:href="#DejaVuSans-51" transform="translate(188.671875 0)"/>
      <use xlink:href="#DejaVuSans-3" transform="translate(252.046875 0)"/>
      <use xlink:href="#DejaVuSans-14" transform="translate(283.828125 0)"/>
      <use xlink:href="#DejaVuSans-3" transform="translate(347.453125 0)"/>
      <use xlink:href="#DejaVuSans-50" transform="translate(379.234375 0)"/>
      <use xlink:href="#DejaVuSans-50" transform="translate(476.640625 0)"/>
     </g>
    </g>
   </g>
  </g>
 </g>
 <defs>
  <clipPath id="p6cd9f138fc">
   <rect x="47.242344" y="26.16" width="258.615517" height="205.317656"/>
  </clipPath>
  <clipPath id="p3791cf6edd">
   <rect x="354.562344" y="26.16" width="258.615517" height="205.317656"/>
  </clipPath>
  <clipPath id="pd952f9df22">
   <rect x="661.882344" y="26.16" width="258.615517" height="205.317656"/>
  </clipPath>
 </defs>
</svg>
